<svg width="751" height="502" viewBox="0 0 751 502" fill="none" xmlns="http://www.w3.org/2000/svg">
<path d="M632.775 381.277C632.775 381.277 624.407 375.757 616.115 379.684C616.115 379.684 618.668 384.599 629.167 384.136L632.775 381.277Z" fill="#18E597"/>
<path d="M633.837 381.569C633.837 381.569 636.384 391.262 629.997 397.858C629.997 397.858 626.157 393.862 629.997 384.074L633.837 381.569Z" fill="#18E597"/>
<path d="M644.241 372.264C644.241 372.264 643.621 364.021 625 366.758C625 366.758 624.911 372.074 631.448 374.592C637.984 377.111 640.98 374.987 644.241 372.264Z" fill="#18E597"/>
<path d="M645.412 372.21C645.412 372.21 653.283 374.735 646.263 392.194C646.263 392.194 641.068 391.037 640.135 384.088C639.203 377.138 641.967 374.742 645.412 372.21Z" fill="#18E597"/>
<path d="M655.924 360.516C655.924 360.516 656.993 346.95 637.963 348.339C637.963 348.339 636.602 360.591 652.568 363.777L655.924 360.516Z" fill="#18E597"/>
<path d="M668.5 345.202C668.5 345.202 665.892 329.825 646.869 334.406C646.869 334.406 646.801 347.7 665.395 348.864L668.5 345.202Z" fill="#18E597"/>
<path d="M677.692 329.369C677.692 329.369 673.321 314.394 654.474 318.873C654.474 318.873 658.961 332.344 676.439 332.133L677.692 329.369Z" fill="#18E597"/>
<path d="M686.42 313.904C686.42 313.904 682.151 298.365 663.952 303.014C663.952 303.014 670.025 317.777 685.215 316.532L686.42 313.904Z" fill="#18E597"/>
<ellipse opacity="0.1" cx="535" cy="482" rx="146" ry="20" fill="#FF7360"/>
<path d="M692.044 299.215C692.044 299.215 688.762 280.211 671.795 284.417C671.795 284.417 676.725 301.706 690.798 301.986L692.044 299.215Z" fill="#18E597"/>
<path d="M697.321 281.47C697.321 281.47 693.379 262.316 676.214 267.857C676.214 267.857 682.941 285.962 696.102 284.09L697.321 281.47Z" fill="#18E597"/>
<path d="M700.562 264.958C700.562 264.958 694.305 245.797 681.035 246.314C681.035 246.314 687.428 266.55 699.452 268.776L700.562 264.958Z" fill="#18E597"/>
<path d="M702.659 248.839C702.659 248.839 695.85 225.778 685.052 227.555C685.052 227.555 689.763 245.184 702.278 252.433L702.659 248.839Z" fill="#18E597"/>
<path d="M703.844 229.61C703.844 229.61 697.457 210.395 686.822 209.626C686.822 209.626 691.166 228.535 703.633 234.607L703.844 229.61Z" fill="#18E597"/>
<path d="M705.13 211.667C705.13 211.667 697.171 192.432 690.151 191.996C690.151 191.996 693.61 210.939 704.449 214.826L705.13 211.667Z" fill="#18E597"/>
<path d="M706.009 194.978C706.009 194.978 701.113 174.088 694.08 172.353C694.08 172.353 695.04 189.444 705.3 196.544L706.009 194.978Z" fill="#18E597"/>
<path d="M708.664 173.115C708.664 173.115 703.517 156.459 697.818 153.92C697.818 153.92 698.941 173.557 707.35 177.185L708.664 173.115Z" fill="#18E597"/>
<path d="M710.863 158.82L711.898 129.456C711.898 129.456 701.243 151.591 710.094 163.973L710.863 158.82Z" fill="#18E597"/>
<path d="M719.088 129.613C719.088 129.613 726.761 108.172 728.62 106.974C728.62 106.974 713.573 120.887 715.044 138.781L719.088 129.613Z" fill="#18E597"/>
<path d="M656.442 360.414C656.442 360.414 669.937 358.651 669.535 377.717C669.535 377.717 657.341 379.704 653.358 363.933L656.442 360.414Z" fill="#18E597"/>
<path d="M669.14 344.684C669.14 344.684 684.732 344.636 683.438 364.151C683.438 364.151 670.345 366.492 666.028 348.373L669.14 344.684Z" fill="#18E597"/>
<path d="M677.841 330.628C677.841 330.628 691.996 323.991 701.052 341.124C701.052 341.124 687.979 346.651 676.589 333.398L677.841 330.628Z" fill="#18E597"/>
<path d="M686.733 314.047C686.733 314.047 701.229 306.988 709.74 323.719C709.74 323.719 694.638 328.919 685.535 316.694L686.733 314.047Z" fill="#18E597"/>
<path d="M691.86 299.63C691.86 299.63 705.811 286.309 716.943 299.78C716.943 299.78 702.693 310.745 691.22 302.598L691.86 299.63Z" fill="#18E597"/>
<path d="M696.531 281.015C696.531 281.015 710.564 267.401 721.607 281.641C721.607 281.641 705.859 292.824 696.027 283.873L696.531 281.015Z" fill="#18E597"/>
<path d="M699.152 264.413C699.152 264.413 709.964 247.396 722.696 251.194C722.696 251.194 711.476 269.212 699.275 268.409L699.152 264.413Z" fill="#18E597"/>
<path d="M702.339 248.73C702.339 248.73 713.233 227.303 723.541 231.033C723.541 231.033 715.684 247.505 702.06 252.344L702.339 248.73Z" fill="#18E597"/>
<path d="M703.094 228.494C703.094 228.494 714.295 211.627 724.787 213.689C724.787 213.689 715.629 230.795 702.005 233.374L703.094 228.494Z" fill="#18E597"/>
<path d="M703.966 211.293C703.966 211.293 712.647 192.364 719.701 192.234C719.701 192.234 715.534 211.028 704.552 214.506L703.966 211.293Z" fill="#18E597"/>
<path d="M705.668 194.569C705.668 194.569 715.316 175.401 722.567 175.36C722.567 175.36 717.631 191.751 705.988 196.25L705.668 194.569Z" fill="#18E597"/>
<path d="M707.118 174.313C707.118 174.313 714.336 158.453 720.313 156.656C720.313 156.656 716.705 175.987 707.915 178.519L707.118 174.313Z" fill="#18E597"/>
<path d="M711.721 158.242L727.851 133.677C727.851 133.677 723.718 157.909 709.365 162.946L711.721 158.242Z" fill="#18E597"/>
<path d="M722.792 131.594C722.792 131.594 741.536 118.661 742.217 116.571C742.217 116.571 732.685 134.684 714.982 137.883L722.792 131.594Z" fill="#18E597"/>
<path d="M723.915 125.774C723.915 125.774 745.437 105.088 750.932 105.108C750.932 105.108 733.182 105.918 723.398 124.671L723.915 125.774Z" fill="#18E597"/>
<path d="M707.329 177.382L708.112 177.484C712.157 145.84 718.053 127.115 724.712 124.821L724.453 124.072C717.393 126.523 711.455 144.962 707.329 177.382Z" fill="#282F36"/>
<path d="M701.379 253.059L702.563 253.155C702.815 250.2 703.006 247.178 703.135 244.163C704.266 217.971 706.015 193.916 708.317 175.885L707.636 175.034C705.328 193.106 703.081 217.882 701.951 244.115C701.821 247.11 701.631 250.119 701.379 253.059Z" fill="#282F36"/>
<path d="M610.688 396.374C610.892 396.285 631.747 386.973 653.392 364.77C666.073 351.766 676.61 336.832 684.609 320.527C694.618 300.154 700.718 275.119 702.761 250.799L701.529 251.377C696.933 305.967 672.075 343.268 652.309 363.586C630.876 385.592 610.252 394.808 610.048 394.896L610.688 396.374Z" fill="#282F36"/>
<g filter="url(#filter0_d_166_2511)">
<path d="M664.687 0.0136719H10.4612C8.9155 0.0136719 7.43308 0.62753 6.34009 1.72022C5.24709 2.8129 4.63306 4.29491 4.63306 5.8402V22.8161H670.515V5.8402C670.515 4.29491 669.901 2.8129 668.808 1.72022C667.715 0.62753 666.233 0.0136719 664.687 0.0136719Z" fill="#282F36"/>
<path d="M4.63306 22.8154V404.834C4.63306 407.95 5.87117 410.938 8.07504 413.142C10.2789 415.345 13.268 416.583 16.3847 416.583H658.764C661.88 416.583 664.87 415.345 667.073 413.142C669.277 410.938 670.515 407.95 670.515 404.834V22.8154H4.63306Z" fill="white"/>
</g>
<path opacity="0.8" d="M15.1795 13.9668C16.6836 13.9668 17.9029 12.7479 17.9029 11.2442C17.9029 9.74047 16.6836 8.52148 15.1795 8.52148C13.6754 8.52148 12.4561 9.74047 12.4561 11.2442C12.4561 12.7479 13.6754 13.9668 15.1795 13.9668Z" fill="#FF7360"/>
<path opacity="0.8" d="M22.669 13.9668C24.1731 13.9668 25.3924 12.7479 25.3924 11.2442C25.3924 9.74047 24.1731 8.52148 22.669 8.52148C21.1649 8.52148 19.9456 9.74047 19.9456 11.2442C19.9456 12.7479 21.1649 13.9668 22.669 13.9668Z" fill="#FED253"/>
<path opacity="0.8" d="M30.1585 13.9668C31.6626 13.9668 32.882 12.7479 32.882 11.2442C32.882 9.74047 31.6626 8.52148 30.1585 8.52148C28.6544 8.52148 27.4351 9.74047 27.4351 11.2442C27.4351 12.7479 28.6544 13.9668 30.1585 13.9668Z" fill="#18E597"/>
<path opacity="0.05" d="M601.687 86.5127H66.5303V321.766H601.687V86.5127Z" fill="#282F36"/>
<path d="M597.602 88.2959H70.6152V318.362H597.602V88.2959Z" fill="#282F36"/>
<path d="M214.277 147.508C203.908 147.508 193.772 150.582 185.15 156.341C176.529 162.1 169.809 170.285 165.841 179.862C161.873 189.439 160.835 199.977 162.858 210.144C164.881 220.311 169.874 229.65 177.206 236.98C184.538 244.31 193.879 249.301 204.049 251.324C214.219 253.346 224.76 252.308 234.34 248.341C243.919 244.374 252.107 237.657 257.868 229.038C263.628 220.419 266.703 210.285 266.703 199.919C266.703 193.037 265.347 186.221 262.713 179.862C260.078 173.503 256.216 167.726 251.348 162.859C246.48 157.992 240.7 154.131 234.34 151.497C227.979 148.863 221.162 147.508 214.277 147.508V147.508ZM223.68 201.179V225.996H205.147V201.179C202.582 199.238 200.692 196.541 199.743 193.468C198.794 190.396 198.834 187.103 199.858 184.054C200.882 181.006 202.838 178.356 205.45 176.479C208.061 174.601 211.197 173.591 214.413 173.591C217.63 173.591 220.765 174.601 223.377 176.479C225.988 178.356 227.944 181.006 228.968 184.054C229.992 187.103 230.032 190.396 229.083 193.468C228.134 196.541 226.244 199.238 223.68 201.179V201.179Z" fill="#18E597"/>
<path opacity="0.05" d="M214.277 147.508C203.908 147.508 193.772 150.582 185.15 156.341C176.529 162.1 169.809 170.285 165.841 179.862C161.873 189.439 160.835 199.977 162.858 210.144C164.881 220.311 169.874 229.65 177.206 236.98C184.538 244.31 193.879 249.301 204.049 251.324C214.219 253.346 224.76 252.308 234.34 248.341C243.919 244.374 252.107 237.657 257.868 229.038C263.629 220.419 266.703 210.285 266.703 199.919C266.703 193.037 265.347 186.221 262.713 179.862C260.078 173.503 256.216 167.726 251.348 162.859C246.48 157.992 240.7 154.131 234.34 151.497C227.979 148.863 221.162 147.508 214.277 147.508ZM223.68 201.179V225.996H205.147V201.179C202.582 199.238 200.692 196.541 199.743 193.468C198.794 190.396 198.834 187.103 199.858 184.054C200.882 181.006 202.838 178.356 205.45 176.479C208.061 174.601 211.197 173.591 214.413 173.591C217.63 173.591 220.765 174.601 223.377 176.479C225.988 178.356 227.944 181.006 228.968 184.054C229.992 187.103 230.032 190.396 229.083 193.468C228.134 196.541 226.244 199.238 223.68 201.179Z" fill="#282F36"/>
<path d="M214.277 132.533C200.946 132.533 187.914 136.485 176.829 143.89C165.744 151.294 157.105 161.819 152.003 174.132C146.901 186.445 145.566 199.994 148.167 213.066C150.768 226.137 157.188 238.145 166.614 247.569C176.041 256.993 188.052 263.411 201.127 266.011C214.202 268.611 227.755 267.276 240.072 262.176C252.389 257.076 262.916 248.439 270.323 237.357C277.729 226.276 281.682 213.247 281.682 199.919C281.682 182.047 274.581 164.908 261.94 152.27C249.299 139.633 232.154 132.533 214.277 132.533V132.533ZM226.362 201.539V233.442H202.532V201.539C199.234 199.044 196.802 195.575 195.582 191.624C194.361 187.672 194.412 183.437 195.729 179.517C197.046 175.596 199.561 172.188 202.92 169.773C206.278 167.359 210.311 166.06 214.447 166.06C218.584 166.06 222.617 167.359 225.975 169.773C229.334 172.188 231.849 175.596 233.166 179.517C234.482 183.437 234.534 187.672 233.313 191.624C232.092 195.575 229.661 199.044 226.362 201.539V201.539Z" fill="#18E597"/>
<path d="M526.473 191.077H310.598C310.045 191.077 309.598 191.525 309.598 192.077V213.22C309.598 213.772 310.045 214.22 310.598 214.22H526.473C527.026 214.22 527.473 213.772 527.473 213.22V192.077C527.473 191.525 527.026 191.077 526.473 191.077Z" fill="white"/>
<path d="M526.473 233.278H481.494C480.941 233.278 480.494 233.726 480.494 234.278V255.421C480.494 255.973 480.941 256.421 481.494 256.421H526.473C527.025 256.421 527.473 255.973 527.473 255.421V234.278C527.473 233.726 527.025 233.278 526.473 233.278Z" fill="#18E597"/>
<path d="M331.045 202.302H327.103L330.609 198.803C330.672 198.738 330.707 198.652 330.707 198.562C330.707 198.471 330.672 198.385 330.609 198.32C330.577 198.288 330.54 198.263 330.498 198.245C330.457 198.228 330.412 198.219 330.367 198.219C330.322 198.219 330.278 198.228 330.236 198.245C330.195 198.263 330.157 198.288 330.126 198.32L326.619 201.825V197.877C326.619 197.787 326.583 197.701 326.52 197.637C326.456 197.573 326.369 197.537 326.279 197.537C326.189 197.539 326.103 197.575 326.04 197.639C325.977 197.702 325.94 197.788 325.938 197.877V201.825L322.439 198.299C322.407 198.268 322.369 198.242 322.328 198.225C322.286 198.208 322.242 198.199 322.197 198.199C322.152 198.199 322.108 198.208 322.066 198.225C322.025 198.242 321.987 198.268 321.955 198.299C321.893 198.364 321.857 198.451 321.857 198.541C321.857 198.631 321.893 198.718 321.955 198.783L325.462 202.281H321.513C321.423 202.283 321.337 202.32 321.274 202.383C321.21 202.446 321.174 202.532 321.172 202.622C321.172 202.712 321.208 202.799 321.272 202.862C321.336 202.926 321.423 202.962 321.513 202.962H325.462L321.955 206.467C321.893 206.532 321.857 206.619 321.857 206.709C321.857 206.799 321.893 206.886 321.955 206.951C322.021 207.012 322.107 207.046 322.197 207.046C322.287 207.046 322.373 207.012 322.439 206.951L325.938 203.445V207.386C325.938 207.477 325.974 207.563 326.038 207.627C326.102 207.691 326.189 207.727 326.279 207.727C326.369 207.727 326.456 207.691 326.52 207.627C326.583 207.563 326.619 207.477 326.619 207.386V203.445L330.126 206.951C330.191 207.012 330.278 207.046 330.367 207.046C330.457 207.046 330.543 207.012 330.609 206.951C330.672 206.886 330.707 206.799 330.707 206.709C330.707 206.619 330.672 206.532 330.609 206.467L327.103 202.962H331.045C331.135 202.962 331.222 202.926 331.286 202.862C331.349 202.799 331.385 202.712 331.385 202.622C331.38 202.535 331.342 202.454 331.279 202.394C331.215 202.335 331.132 202.302 331.045 202.302Z" fill="#18E597"/>
<path d="M345.343 202.302H341.401L344.907 198.803C344.97 198.738 345.005 198.652 345.005 198.562C345.005 198.471 344.97 198.385 344.907 198.32C344.876 198.288 344.838 198.263 344.796 198.245C344.755 198.228 344.71 198.219 344.665 198.219C344.62 198.219 344.576 198.228 344.535 198.245C344.493 198.263 344.455 198.288 344.424 198.32L340.917 201.825V197.877C340.917 197.787 340.881 197.701 340.818 197.637C340.754 197.573 340.667 197.537 340.577 197.537C340.487 197.539 340.402 197.575 340.338 197.639C340.275 197.702 340.238 197.788 340.236 197.877V201.825L336.737 198.299C336.705 198.268 336.668 198.242 336.626 198.225C336.585 198.208 336.54 198.199 336.495 198.199C336.45 198.199 336.406 198.208 336.364 198.225C336.323 198.242 336.285 198.268 336.253 198.299C336.191 198.364 336.155 198.451 336.155 198.541C336.155 198.631 336.191 198.718 336.253 198.783L339.76 202.281H335.811C335.721 202.283 335.636 202.32 335.572 202.383C335.509 202.446 335.472 202.532 335.47 202.622C335.47 202.712 335.506 202.799 335.57 202.862C335.634 202.926 335.721 202.962 335.811 202.962H339.76L336.253 206.467C336.191 206.532 336.155 206.619 336.155 206.709C336.155 206.799 336.191 206.886 336.253 206.951C336.319 207.012 336.405 207.046 336.495 207.046C336.585 207.046 336.671 207.012 336.737 206.951L340.236 203.445V207.386C340.236 207.477 340.272 207.563 340.336 207.627C340.4 207.691 340.487 207.727 340.577 207.727C340.667 207.727 340.754 207.691 340.818 207.627C340.881 207.563 340.917 207.477 340.917 207.386V203.445L344.424 206.951C344.489 207.012 344.576 207.046 344.665 207.046C344.755 207.046 344.842 207.012 344.907 206.951C344.97 206.886 345.005 206.799 345.005 206.709C345.005 206.619 344.97 206.532 344.907 206.467L341.401 202.962H345.343C345.433 202.962 345.52 202.926 345.584 202.862C345.647 202.799 345.683 202.712 345.683 202.622C345.678 202.535 345.64 202.454 345.577 202.394C345.513 202.335 345.43 202.302 345.343 202.302Z" fill="#18E597"/>
<path d="M359.641 202.302H355.699L359.205 198.803C359.268 198.738 359.303 198.652 359.303 198.562C359.303 198.471 359.268 198.385 359.205 198.32C359.174 198.288 359.136 198.263 359.094 198.245C359.053 198.228 359.008 198.219 358.964 198.219C358.919 198.219 358.874 198.228 358.833 198.245C358.791 198.263 358.754 198.288 358.722 198.32L355.215 201.825V197.877C355.215 197.787 355.18 197.701 355.116 197.637C355.052 197.573 354.965 197.537 354.875 197.537C354.785 197.539 354.7 197.575 354.636 197.639C354.573 197.702 354.536 197.788 354.535 197.877V201.825L351.035 198.299C351.003 198.268 350.966 198.242 350.924 198.225C350.883 198.208 350.838 198.199 350.793 198.199C350.748 198.199 350.704 198.208 350.662 198.225C350.621 198.242 350.583 198.268 350.552 198.299C350.489 198.364 350.454 198.451 350.454 198.541C350.454 198.631 350.489 198.718 350.552 198.783L354.058 202.281H350.109C350.019 202.283 349.934 202.32 349.87 202.383C349.807 202.446 349.77 202.532 349.769 202.622C349.769 202.712 349.804 202.799 349.868 202.862C349.932 202.926 350.019 202.962 350.109 202.962H354.058L350.552 206.467C350.489 206.532 350.454 206.619 350.454 206.709C350.454 206.799 350.489 206.886 350.552 206.951C350.617 207.012 350.703 207.046 350.793 207.046C350.883 207.046 350.969 207.012 351.035 206.951L354.535 203.445V207.386C354.535 207.477 354.57 207.563 354.634 207.627C354.698 207.691 354.785 207.727 354.875 207.727C354.965 207.727 355.052 207.691 355.116 207.627C355.18 207.563 355.215 207.477 355.215 207.386V203.445L358.722 206.951C358.787 207.012 358.874 207.046 358.964 207.046C359.053 207.046 359.14 207.012 359.205 206.951C359.268 206.886 359.303 206.799 359.303 206.709C359.303 206.619 359.268 206.532 359.205 206.467L355.699 202.962H359.641C359.731 202.962 359.818 202.926 359.882 202.862C359.946 202.799 359.981 202.712 359.981 202.622C359.976 202.535 359.938 202.454 359.875 202.394C359.812 202.335 359.728 202.302 359.641 202.302Z" fill="#18E597"/>
<path d="M373.939 202.302H369.997L373.503 198.803C373.566 198.738 373.601 198.652 373.601 198.562C373.601 198.471 373.566 198.385 373.503 198.32C373.472 198.288 373.434 198.263 373.392 198.245C373.351 198.228 373.306 198.219 373.261 198.219C373.216 198.219 373.172 198.228 373.131 198.245C373.089 198.263 373.051 198.288 373.02 198.32L369.513 201.825V197.877C369.513 197.787 369.477 197.701 369.414 197.637C369.35 197.573 369.263 197.537 369.173 197.537C369.083 197.539 368.998 197.575 368.934 197.639C368.871 197.702 368.834 197.788 368.832 197.877V201.825L365.333 198.299C365.301 198.268 365.263 198.242 365.222 198.225C365.181 198.208 365.136 198.199 365.091 198.199C365.046 198.199 365.002 198.208 364.96 198.225C364.919 198.242 364.881 198.268 364.849 198.299C364.787 198.364 364.751 198.451 364.751 198.541C364.751 198.631 364.787 198.718 364.849 198.783L368.356 202.281H364.407C364.317 202.283 364.231 202.32 364.168 202.383C364.105 202.446 364.068 202.532 364.066 202.622C364.066 202.712 364.102 202.799 364.166 202.862C364.23 202.926 364.317 202.962 364.407 202.962H368.356L364.849 206.467C364.787 206.532 364.751 206.619 364.751 206.709C364.751 206.799 364.787 206.886 364.849 206.951C364.915 207.012 365.001 207.046 365.091 207.046C365.181 207.046 365.267 207.012 365.333 206.951L368.832 203.445V207.386C368.832 207.477 368.868 207.563 368.932 207.627C368.996 207.691 369.083 207.727 369.173 207.727C369.263 207.727 369.35 207.691 369.414 207.627C369.477 207.563 369.513 207.477 369.513 207.386V203.445L373.02 206.951C373.085 207.012 373.172 207.046 373.261 207.046C373.351 207.046 373.438 207.012 373.503 206.951C373.566 206.886 373.601 206.799 373.601 206.709C373.601 206.619 373.566 206.532 373.503 206.467L369.997 202.962H373.939C374.029 202.962 374.116 202.926 374.18 202.862C374.243 202.799 374.279 202.712 374.279 202.622C374.274 202.535 374.236 202.454 374.173 202.394C374.109 202.335 374.026 202.302 373.939 202.302Z" fill="#18E597"/>
<path d="M388.237 202.302H384.295L387.801 198.803C387.864 198.738 387.899 198.652 387.899 198.562C387.899 198.471 387.864 198.385 387.801 198.32C387.77 198.288 387.732 198.263 387.691 198.245C387.649 198.228 387.605 198.219 387.56 198.219C387.515 198.219 387.47 198.228 387.429 198.245C387.387 198.263 387.35 198.288 387.318 198.32L383.812 201.825V197.877C383.812 197.787 383.776 197.701 383.712 197.637C383.648 197.573 383.561 197.537 383.471 197.537C383.381 197.539 383.296 197.575 383.232 197.639C383.169 197.702 383.133 197.788 383.131 197.877V201.825L379.631 198.299C379.599 198.268 379.562 198.242 379.52 198.225C379.479 198.208 379.434 198.199 379.389 198.199C379.344 198.199 379.3 198.208 379.259 198.225C379.217 198.242 379.179 198.268 379.148 198.299C379.085 198.364 379.05 198.451 379.05 198.541C379.05 198.631 379.085 198.718 379.148 198.783L382.654 202.281H378.705C378.615 202.283 378.53 202.32 378.466 202.383C378.403 202.446 378.366 202.532 378.365 202.622C378.365 202.712 378.401 202.799 378.464 202.862C378.528 202.926 378.615 202.962 378.705 202.962H382.654L379.148 206.467C379.085 206.532 379.05 206.619 379.05 206.709C379.05 206.799 379.085 206.886 379.148 206.951C379.213 207.012 379.3 207.046 379.389 207.046C379.479 207.046 379.566 207.012 379.631 206.951L383.131 203.445V207.386C383.131 207.477 383.167 207.563 383.23 207.627C383.294 207.691 383.381 207.727 383.471 207.727C383.561 207.727 383.648 207.691 383.712 207.627C383.776 207.563 383.812 207.477 383.812 207.386V203.445L387.318 206.951C387.384 207.012 387.47 207.046 387.56 207.046C387.649 207.046 387.736 207.012 387.801 206.951C387.864 206.886 387.899 206.799 387.899 206.709C387.899 206.619 387.864 206.532 387.801 206.467L384.295 202.962H388.237C388.328 202.962 388.414 202.926 388.478 202.862C388.542 202.799 388.578 202.712 388.578 202.622C388.572 202.535 388.534 202.454 388.471 202.394C388.408 202.335 388.324 202.302 388.237 202.302Z" fill="#18E597"/>
<path d="M402.535 202.302H398.593L402.099 198.803C402.162 198.738 402.197 198.652 402.197 198.562C402.197 198.471 402.162 198.385 402.099 198.32C402.068 198.288 402.03 198.263 401.989 198.245C401.947 198.228 401.903 198.219 401.858 198.219C401.813 198.219 401.768 198.228 401.727 198.245C401.685 198.263 401.648 198.288 401.616 198.32L398.109 201.825V197.877C398.109 197.787 398.074 197.701 398.01 197.637C397.946 197.573 397.859 197.537 397.769 197.537C397.679 197.539 397.594 197.575 397.53 197.639C397.467 197.702 397.43 197.788 397.429 197.877V201.825L393.929 198.299C393.897 198.268 393.86 198.242 393.818 198.225C393.777 198.208 393.732 198.199 393.687 198.199C393.642 198.199 393.598 198.208 393.556 198.225C393.515 198.242 393.477 198.268 393.446 198.299C393.383 198.364 393.348 198.451 393.348 198.541C393.348 198.631 393.383 198.718 393.446 198.783L396.952 202.281H393.003C392.913 202.283 392.828 202.32 392.764 202.383C392.701 202.446 392.664 202.532 392.663 202.622C392.663 202.712 392.698 202.799 392.762 202.862C392.826 202.926 392.913 202.962 393.003 202.962H396.952L393.446 206.467C393.383 206.532 393.348 206.619 393.348 206.709C393.348 206.799 393.383 206.886 393.446 206.951C393.511 207.012 393.598 207.046 393.687 207.046C393.777 207.046 393.863 207.012 393.929 206.951L397.429 203.445V207.386C397.429 207.477 397.464 207.563 397.528 207.627C397.592 207.691 397.679 207.727 397.769 207.727C397.859 207.727 397.946 207.691 398.01 207.627C398.074 207.563 398.109 207.477 398.109 207.386V203.445L401.616 206.951C401.681 207.012 401.768 207.046 401.858 207.046C401.947 207.046 402.034 207.012 402.099 206.951C402.162 206.886 402.197 206.799 402.197 206.709C402.197 206.619 402.162 206.532 402.099 206.467L398.593 202.962H402.535C402.625 202.962 402.712 202.926 402.776 202.862C402.84 202.799 402.876 202.712 402.876 202.622C402.87 202.535 402.832 202.454 402.769 202.394C402.706 202.335 402.622 202.302 402.535 202.302Z" fill="#18E597"/>
<path d="M416.833 202.302H412.891L416.398 198.803C416.46 198.738 416.496 198.652 416.496 198.562C416.496 198.471 416.46 198.385 416.398 198.32C416.366 198.288 416.328 198.263 416.287 198.245C416.245 198.228 416.201 198.219 416.156 198.219C416.111 198.219 416.067 198.228 416.025 198.245C415.984 198.263 415.946 198.288 415.914 198.32L412.408 201.825V197.877C412.408 197.787 412.372 197.701 412.308 197.637C412.244 197.573 412.158 197.537 412.067 197.537C411.978 197.539 411.892 197.575 411.829 197.639C411.765 197.702 411.729 197.788 411.727 197.877V201.825L408.227 198.299C408.196 198.268 408.158 198.242 408.117 198.225C408.075 198.208 408.031 198.199 407.986 198.199C407.941 198.199 407.896 198.208 407.855 198.225C407.813 198.242 407.776 198.268 407.744 198.299C407.681 198.364 407.646 198.451 407.646 198.541C407.646 198.631 407.681 198.718 407.744 198.783L411.25 202.281H407.301C407.212 202.283 407.126 202.32 407.063 202.383C406.999 202.446 406.963 202.532 406.961 202.622C406.961 202.712 406.997 202.799 407.061 202.862C407.124 202.926 407.211 202.962 407.301 202.962H411.25L407.744 206.467C407.681 206.532 407.646 206.619 407.646 206.709C407.646 206.799 407.681 206.886 407.744 206.951C407.809 207.012 407.896 207.046 407.986 207.046C408.075 207.046 408.162 207.012 408.227 206.951L411.727 203.445V207.386C411.727 207.477 411.763 207.563 411.827 207.627C411.891 207.691 411.977 207.727 412.067 207.727C412.158 207.727 412.244 207.691 412.308 207.627C412.372 207.563 412.408 207.477 412.408 207.386V203.445L415.914 206.951C415.98 207.012 416.066 207.046 416.156 207.046C416.246 207.046 416.332 207.012 416.398 206.951C416.46 206.886 416.496 206.799 416.496 206.709C416.496 206.619 416.46 206.532 416.398 206.467L412.891 202.962H416.833C416.924 202.962 417.01 202.926 417.074 202.862C417.138 202.799 417.174 202.712 417.174 202.622C417.169 202.535 417.13 202.454 417.067 202.394C417.004 202.335 416.92 202.302 416.833 202.302Z" fill="#18E597"/>
<path d="M431.131 202.302H427.189L430.696 198.803C430.758 198.738 430.793 198.652 430.793 198.562C430.793 198.471 430.758 198.385 430.696 198.32C430.664 198.288 430.626 198.263 430.585 198.245C430.543 198.228 430.499 198.219 430.454 198.219C430.409 198.219 430.364 198.228 430.323 198.245C430.281 198.263 430.244 198.288 430.212 198.32L426.706 201.825V197.877C426.706 197.787 426.67 197.701 426.606 197.637C426.542 197.573 426.456 197.537 426.365 197.537C426.276 197.539 426.19 197.575 426.126 197.639C426.063 197.702 426.027 197.788 426.025 197.877V201.825L422.525 198.299C422.494 198.268 422.456 198.242 422.414 198.225C422.373 198.208 422.328 198.199 422.283 198.199C422.239 198.199 422.194 198.208 422.153 198.225C422.111 198.242 422.073 198.268 422.042 198.299C421.979 198.364 421.944 198.451 421.944 198.541C421.944 198.631 421.979 198.718 422.042 198.783L425.548 202.281H421.599C421.509 202.283 421.424 202.32 421.36 202.383C421.297 202.446 421.261 202.532 421.259 202.622C421.259 202.712 421.295 202.799 421.358 202.862C421.422 202.926 421.509 202.962 421.599 202.962H425.548L422.042 206.467C421.979 206.532 421.944 206.619 421.944 206.709C421.944 206.799 421.979 206.886 422.042 206.951C422.107 207.012 422.194 207.046 422.283 207.046C422.373 207.046 422.46 207.012 422.525 206.951L426.025 203.445V207.386C426.025 207.477 426.061 207.563 426.125 207.627C426.188 207.691 426.275 207.727 426.365 207.727C426.456 207.727 426.542 207.691 426.606 207.627C426.67 207.563 426.706 207.477 426.706 207.386V203.445L430.212 206.951C430.278 207.012 430.364 207.046 430.454 207.046C430.544 207.046 430.63 207.012 430.696 206.951C430.758 206.886 430.793 206.799 430.793 206.709C430.793 206.619 430.758 206.532 430.696 206.467L427.189 202.962H431.131C431.222 202.962 431.308 202.926 431.372 202.862C431.436 202.799 431.472 202.712 431.472 202.622C431.466 202.535 431.428 202.454 431.365 202.394C431.302 202.335 431.218 202.302 431.131 202.302Z" fill="#18E597"/>
<path d="M445.43 202.302H441.487L444.994 198.803C445.057 198.738 445.092 198.652 445.092 198.562C445.092 198.471 445.057 198.385 444.994 198.32C444.962 198.288 444.925 198.263 444.883 198.245C444.842 198.228 444.797 198.219 444.752 198.219C444.707 198.219 444.663 198.228 444.621 198.245C444.58 198.263 444.542 198.288 444.51 198.32L441.004 201.825V197.877C441.004 197.787 440.968 197.701 440.904 197.637C440.84 197.573 440.754 197.537 440.664 197.537C440.574 197.539 440.488 197.575 440.425 197.639C440.361 197.702 440.325 197.788 440.323 197.877V201.825L436.824 198.299C436.792 198.268 436.754 198.242 436.713 198.225C436.671 198.208 436.627 198.199 436.582 198.199C436.537 198.199 436.492 198.208 436.451 198.225C436.409 198.242 436.372 198.268 436.34 198.299C436.277 198.364 436.242 198.451 436.242 198.541C436.242 198.631 436.277 198.718 436.34 198.783L439.847 202.281H435.898C435.808 202.283 435.722 202.32 435.659 202.383C435.595 202.446 435.559 202.532 435.557 202.622C435.557 202.712 435.593 202.799 435.657 202.862C435.721 202.926 435.807 202.962 435.898 202.962H439.847L436.34 206.467C436.277 206.532 436.242 206.619 436.242 206.709C436.242 206.799 436.277 206.886 436.34 206.951C436.406 207.012 436.492 207.046 436.582 207.046C436.672 207.046 436.758 207.012 436.824 206.951L440.323 203.445V207.386C440.323 207.477 440.359 207.563 440.423 207.627C440.487 207.691 440.573 207.727 440.664 207.727C440.754 207.727 440.84 207.691 440.904 207.627C440.968 207.563 441.004 207.477 441.004 207.386V203.445L444.51 206.951C444.576 207.012 444.662 207.046 444.752 207.046C444.842 207.046 444.928 207.012 444.994 206.951C445.057 206.886 445.092 206.799 445.092 206.709C445.092 206.619 445.057 206.532 444.994 206.467L441.487 202.962H445.43C445.52 202.962 445.606 202.926 445.67 202.862C445.734 202.799 445.77 202.712 445.77 202.622C445.765 202.535 445.727 202.454 445.663 202.394C445.6 202.335 445.516 202.302 445.43 202.302Z" fill="#18E597"/>
<path d="M459.727 202.302H455.785L459.292 198.803C459.355 198.738 459.39 198.652 459.39 198.562C459.39 198.471 459.355 198.385 459.292 198.32C459.26 198.288 459.222 198.263 459.181 198.245C459.139 198.228 459.095 198.219 459.05 198.219C459.005 198.219 458.961 198.228 458.919 198.245C458.878 198.263 458.84 198.288 458.808 198.32L455.302 201.825V197.877C455.302 197.787 455.266 197.701 455.202 197.637C455.138 197.573 455.052 197.537 454.961 197.537C454.872 197.539 454.786 197.575 454.723 197.639C454.659 197.702 454.623 197.788 454.621 197.877V201.825L451.121 198.299C451.09 198.268 451.052 198.242 451.011 198.225C450.969 198.208 450.925 198.199 450.88 198.199C450.835 198.199 450.79 198.208 450.749 198.225C450.707 198.242 450.67 198.268 450.638 198.299C450.575 198.364 450.54 198.451 450.54 198.541C450.54 198.631 450.575 198.718 450.638 198.783L454.144 202.281H450.195C450.106 202.283 450.02 202.32 449.957 202.383C449.893 202.446 449.857 202.532 449.855 202.622C449.855 202.712 449.891 202.799 449.955 202.862C450.019 202.926 450.105 202.962 450.195 202.962H454.144L450.638 206.467C450.575 206.532 450.54 206.619 450.54 206.709C450.54 206.799 450.575 206.886 450.638 206.951C450.704 207.012 450.79 207.046 450.88 207.046C450.969 207.046 451.056 207.012 451.121 206.951L454.621 203.445V207.386C454.621 207.477 454.657 207.563 454.721 207.627C454.785 207.691 454.871 207.727 454.961 207.727C455.052 207.727 455.138 207.691 455.202 207.627C455.266 207.563 455.302 207.477 455.302 207.386V203.445L458.808 206.951C458.874 207.012 458.96 207.046 459.05 207.046C459.14 207.046 459.226 207.012 459.292 206.951C459.355 206.886 459.39 206.799 459.39 206.709C459.39 206.619 459.355 206.532 459.292 206.467L455.785 202.962H459.727C459.818 202.962 459.904 202.926 459.968 202.862C460.032 202.799 460.068 202.712 460.068 202.622C460.063 202.535 460.025 202.454 459.961 202.394C459.898 202.335 459.814 202.302 459.727 202.302Z" fill="#18E597"/>
<path d="M474.026 202.302H470.084L473.59 198.803C473.653 198.738 473.688 198.652 473.688 198.562C473.688 198.471 473.653 198.385 473.59 198.32C473.558 198.288 473.521 198.263 473.479 198.245C473.438 198.228 473.393 198.219 473.348 198.219C473.303 198.219 473.259 198.228 473.217 198.245C473.176 198.263 473.138 198.288 473.107 198.32L469.6 201.825V197.877C469.6 197.787 469.564 197.701 469.5 197.637C469.437 197.573 469.35 197.537 469.26 197.537C469.17 197.539 469.084 197.575 469.021 197.639C468.957 197.702 468.921 197.788 468.919 197.877V201.825L465.42 198.299C465.388 198.268 465.35 198.242 465.309 198.225C465.267 198.208 465.223 198.199 465.178 198.199C465.133 198.199 465.089 198.208 465.047 198.225C465.006 198.242 464.968 198.268 464.936 198.299C464.873 198.364 464.838 198.451 464.838 198.541C464.838 198.631 464.873 198.718 464.936 198.783L468.443 202.281H464.494C464.404 202.283 464.318 202.32 464.255 202.383C464.191 202.446 464.155 202.532 464.153 202.622C464.153 202.712 464.189 202.799 464.253 202.862C464.317 202.926 464.403 202.962 464.494 202.962H468.443L464.936 206.467C464.873 206.532 464.838 206.619 464.838 206.709C464.838 206.799 464.873 206.886 464.936 206.951C465.002 207.012 465.088 207.046 465.178 207.046C465.268 207.046 465.354 207.012 465.42 206.951L468.919 203.445V207.386C468.919 207.477 468.955 207.563 469.019 207.627C469.083 207.691 469.169 207.727 469.26 207.727C469.35 207.727 469.437 207.691 469.5 207.627C469.564 207.563 469.6 207.477 469.6 207.386V203.445L473.107 206.951C473.172 207.012 473.259 207.046 473.348 207.046C473.438 207.046 473.524 207.012 473.59 206.951C473.653 206.886 473.688 206.799 473.688 206.709C473.688 206.619 473.653 206.532 473.59 206.467L470.084 202.962H474.026C474.116 202.962 474.203 202.926 474.267 202.862C474.33 202.799 474.366 202.712 474.366 202.622C474.361 202.535 474.323 202.454 474.26 202.394C474.196 202.335 474.113 202.302 474.026 202.302Z" fill="#18E597"/>
<path d="M583.637 285.105C583.618 284.282 583.515 283.463 583.331 282.661C582.718 280.36 581.336 277.576 579.062 276.882C576.714 276.163 574.446 275.205 572.294 274.023C571.886 266.727 573.561 259.26 571.736 252.187C571.055 249.601 569.932 247.123 569.632 244.475C569.258 241.181 570.156 237.669 568.842 234.633C567.807 232.237 565.533 230.549 563.089 229.664C560.645 228.779 558.01 228.541 555.416 228.303C552.148 228.037 541.567 226.785 537.877 229.705C537.622 229.902 537.394 230.131 537.196 230.386C537.114 230.498 537.042 230.616 536.978 230.74L536.944 230.794C536.87 230.936 536.808 231.084 536.76 231.236C536.709 231.403 536.67 231.574 536.644 231.747C536.644 231.801 536.644 231.856 536.644 231.91C536.644 231.965 536.644 232.149 536.644 232.271V232.455C536.644 232.577 536.644 232.7 536.644 232.829C536.644 232.959 536.644 232.924 536.644 232.972C536.692 233.585 536.781 234.197 536.781 234.803C536.788 235.105 536.76 235.406 536.699 235.702C536.472 236.504 536.088 237.254 535.569 237.907L535.446 238.084C535.371 238.193 535.296 238.295 535.228 238.404C535.16 238.513 535.106 238.594 535.051 238.69C534.997 238.785 534.942 238.846 534.895 238.935C534.829 239.047 534.77 239.163 534.718 239.282C534.718 239.35 534.643 239.411 534.615 239.479C534.53 239.663 534.462 239.855 534.411 240.051C534.252 240.643 534.238 241.264 534.37 241.862C534.554 242.625 534.87 243.351 535.303 244.006C535.473 244.285 535.657 244.557 535.848 244.829L536.324 245.476C536.235 246.108 536.188 246.744 536.181 247.382C536.182 249.513 536.666 251.617 537.598 253.534C538.529 255.451 539.884 257.132 541.56 258.45C541.83 261.324 541.8 264.219 541.472 267.087C541.41 267.686 541.336 268.292 541.254 268.891C541.172 269.49 541.111 269.885 541.029 270.382C540.033 270.524 539.017 270.448 538.054 270.157C537.609 269.959 537.155 269.784 536.692 269.633C534.711 269.136 532.689 271.11 530.728 270.511C530.728 270.606 530.673 270.695 530.639 270.783C530.23 270.529 529.759 270.39 529.277 270.382C528.113 270.327 527.167 269.483 526.323 268.687L523.729 266.243C523.559 266.094 523.409 265.925 523.279 265.74C523.14 265.475 523.034 265.194 522.966 264.902C522.53 263.493 521.475 262.37 520.454 261.302C520.26 261.058 520.003 260.872 519.711 260.764C519.599 260.747 519.484 260.747 519.371 260.764C519.302 260.669 519.226 260.578 519.146 260.492C518.97 260.289 518.781 260.098 518.581 259.92C517.342 258.776 517.219 257.796 516.144 256.516C515.205 255.296 514.355 254.011 513.597 252.671C513.509 251.956 513.386 251.221 513.236 250.479C512.893 248.78 512.394 247.117 511.745 245.51L510.384 242.495L510.227 242.651C509.24 241.181 508.184 240.378 507.238 240.568C505.652 240.895 504.869 243.972 505.121 247.995L505.665 252.079C505.665 252.181 505.713 252.283 505.74 252.385C505.642 252.869 505.592 253.361 505.59 253.855C505.59 254.427 506.121 254.849 506.401 255.359C506.847 256.051 507.084 256.857 507.081 257.68C507.047 257.973 506.959 258.252 506.945 258.538C506.982 259.178 507.205 259.792 507.585 260.308L510.99 266.025L511.67 267.223L511.711 267.278C511.926 267.696 512.239 268.056 512.624 268.326C512.757 269.758 513.137 271.156 513.747 272.458C513.863 272.716 513.992 272.961 514.128 273.206C515.044 274.711 516.121 276.11 517.342 277.379L518.962 279.196C520.562 280.98 522.163 282.77 523.899 284.417C524.52 285.078 525.271 285.604 526.105 285.962C526.513 286.125 526.957 286.178 527.392 286.115C527.827 286.051 528.238 285.874 528.583 285.601C528.583 286.446 528.583 287.29 528.583 288.134C528.836 288.149 529.08 288.232 529.29 288.373C529.5 288.515 529.669 288.709 529.778 288.938C529.888 289.166 529.935 289.419 529.914 289.672C529.893 289.924 529.805 290.166 529.659 290.373C528.229 294.042 526.786 297.745 524.62 301.032C526.149 301.937 527.565 303.017 528.842 304.252C529.67 305.169 530.407 306.166 531.041 307.226C531.102 307.73 531.15 308.227 531.177 308.724C531.681 316.837 528.542 324.89 525.73 332.622C524.92 334.814 524.035 337.108 524.103 339.388C523.569 339.717 523.06 340.083 522.578 340.484C523.136 341.94 522.918 343.241 522.857 344.799C522.837 345.734 522.645 346.657 522.292 347.522C521.996 348.122 521.669 348.706 521.311 349.271C519.548 352.382 519.16 356.078 518.806 359.631C518.595 361.775 519.425 364.396 518.452 366.315C516.77 369.61 515.279 373.122 515.048 376.784C515.039 377.608 514.934 378.428 514.734 379.228C514.523 379.908 514.149 380.487 513.958 381.154C513.762 382.048 513.716 382.968 513.822 383.877C513.952 387.139 513.467 390.397 512.392 393.481C511.541 395.911 510.601 398.511 511.269 401.009C509.626 402.734 508.612 404.961 508.389 407.332C508.371 407.939 508.298 408.543 508.171 409.136C507.963 409.743 507.689 410.325 507.354 410.872C505.983 413.367 505.341 416.198 505.502 419.04C503.459 421.81 502.438 425.227 501.832 428.624C501.226 432.02 500.961 435.478 500.184 438.834C499.149 443.272 497.277 447.757 496.909 452.304C494.703 453.713 493.75 456.443 493.328 459.022C492.906 461.602 492.838 464.311 491.755 466.694C491.197 467.932 490.394 469.042 489.862 470.308C489.49 471.316 489.216 472.358 489.045 473.419C488.719 475.079 488.433 476.931 488.834 478.524C488.257 479.135 487.583 479.648 486.839 480.041C486.948 479.619 487.037 479.197 487.112 478.769C485.355 480.361 482.169 479.803 480.766 481.716C480.345 482.333 480.181 483.089 480.308 483.824C480.435 484.56 480.843 485.217 481.447 485.657C481.886 485.924 482.36 486.128 482.856 486.263C486.261 487.352 489.76 488.448 493.26 487.869C493.674 487.825 494.074 487.697 494.438 487.495C494.893 487.16 495.268 486.727 495.534 486.229C496.058 485.398 496.583 484.568 497.1 483.738C498.354 484.112 499.63 484.409 500.92 484.629C501.049 485.718 501.144 486.807 501.192 487.896C501.873 488.033 502.785 488.073 503.105 487.44C503.202 487.201 503.242 486.942 503.221 486.685C503.221 486.202 503.289 485.562 503.33 484.908H503.466C505.543 484.992 507.61 484.574 509.492 483.69C508.763 477.659 511.167 471.765 513.25 466.061C515.449 460.057 517.335 453.945 519.235 447.832C520.597 443.53 522.101 439.365 523.436 435.056C525.115 429.611 526.801 424.165 528.495 418.72C529.23 416.324 529.972 413.955 530.816 411.573C532.594 406.752 534.702 402.06 537.128 397.531C537.809 396.244 538.49 394.971 539.048 393.637C539.729 392.011 540.212 390.309 540.757 388.628C541.944 385.178 543.373 381.816 545.033 378.567C545.08 378.479 545.114 378.397 545.162 378.315C545.713 380.568 546.265 382.855 546.633 385.122C547.13 387.901 547.169 390.743 546.748 393.535C546.422 395.434 545.802 397.313 545.877 399.239C545.979 401.901 547.402 404.317 548.103 406.883C548.555 408.804 548.811 410.765 548.866 412.737C549.057 415.8 550.718 419.237 549.547 422.076C545.904 431.067 547.668 441.223 545.591 450.664C544.522 455.51 541.247 460.064 541.506 465.019C541.687 468.536 541.996 472.044 542.432 475.542C542.537 476.646 542.824 477.725 543.283 478.735C543.554 479.266 543.866 479.776 544.216 480.259C543.916 480.375 543.664 480.681 543.446 481.328C542.888 483.03 543.446 485.14 544.958 486.093C545.574 486.422 546.238 486.652 546.925 486.773C547.851 487.036 548.809 487.169 549.771 487.168C550.071 487.152 550.369 487.116 550.663 487.059C551.716 487.501 552.791 487.888 553.884 488.216C553.884 488.495 553.938 488.774 553.972 489.054C553.974 489.199 554.007 489.343 554.068 489.476C554.129 489.608 554.217 489.726 554.326 489.823C554.496 489.902 554.684 489.935 554.871 489.918H558.568C558.568 489.612 558.568 489.299 558.568 488.992C558.991 489.036 559.419 488.991 559.823 488.86C560.228 488.729 560.601 488.514 560.917 488.23C561.245 487.813 561.477 487.33 561.598 486.814C562.606 483.397 563.606 479.978 564.601 476.556C565.792 472.775 566.288 468.808 566.064 464.849C564.75 452.304 567.637 439.719 566.698 427.14C566.132 419.579 566.521 411.978 567.855 404.514C568.161 402.826 568.536 401.111 568.672 399.43C568.972 396.258 568.604 393.052 568.829 389.9C568.904 388.798 569.053 387.702 569.19 386.606C570.122 379.804 570.611 372.949 570.653 366.084C570.633 363.809 570.492 361.537 570.231 359.277C570.941 359.096 571.585 358.719 572.09 358.188C572.696 357.398 572.539 356.289 572.533 355.282C572.533 352.872 573.547 350.599 574.364 348.325C575.413 345.189 576.272 341.994 576.938 338.755C577.641 336.145 578.025 333.459 578.082 330.757C578.082 330.485 578.068 330.213 578.041 329.94C578.297 329.763 578.511 329.53 578.667 329.26C578.845 328.861 578.955 328.435 578.994 328C579.239 326.265 579.491 324.522 579.736 322.78C579.918 321.532 580.097 320.286 580.274 319.043L582.439 303.939C582.623 302.625 582.814 301.318 582.997 300.011L583.563 296.104C583.624 295.641 583.692 295.179 583.74 294.743C585.401 291.966 583.814 288.263 583.637 285.105ZM565.574 341.655C564.771 339.749 564.022 337.795 564.212 335.74H564.138C564.317 335.107 564.286 334.433 564.049 333.82C563.838 333.323 563.47 332.901 563.246 332.404C563.004 331.798 562.88 331.151 562.878 330.498C562.709 326.359 563.036 322.213 563.852 318.151C563.94 317.675 564.035 317.191 564.124 316.715C564.41 316.55 564.671 316.346 564.9 316.109C565.258 315.701 565.554 315.242 565.778 314.748C566.548 313.203 567.249 311.63 567.896 310.031C568.107 309.513 568.413 308.914 568.938 308.785C568.829 312.767 569.237 316.831 567.617 320.425C567.309 321.004 567.08 321.622 566.936 322.262C566.786 323.277 567.208 324.304 567.058 325.312C566.984 325.836 566.759 326.319 566.67 326.836C566.603 327.09 566.604 327.358 566.674 327.611C566.743 327.864 566.878 328.095 567.065 328.279C567.155 328.343 567.254 328.393 567.358 328.429C567.317 328.701 567.283 328.981 567.256 329.246C567.201 329.804 567.174 330.328 567.14 330.655C566.983 332.32 566.922 333.993 566.956 335.665C566.956 337.468 567.024 339.272 566.997 341.11C567.022 341.638 566.934 342.165 566.738 342.655C566.604 342.908 566.429 343.138 566.221 343.336C566.024 342.723 565.806 342.186 565.574 341.655Z" fill="url(#paint0_linear_166_2511)"/>
<path d="M511.829 262.677C513.906 262.251 514.613 257.139 513.408 251.257C512.202 245.376 509.541 240.953 507.463 241.379C505.386 241.804 504.679 246.917 505.884 252.798C507.09 258.68 509.751 263.102 511.829 262.677Z" fill="#FFF1EF"/>
<path d="M543.555 481.458C542.997 483.146 543.555 485.256 545.067 486.175C545.679 486.501 546.338 486.731 547.021 486.856C547.945 487.117 548.9 487.247 549.86 487.244C551.038 487.189 552.168 486.726 553.346 486.563C553.482 486.529 553.626 486.548 553.748 486.618C553.807 486.681 553.851 486.756 553.877 486.839C553.903 486.921 553.91 487.009 553.898 487.094C553.91 487.763 553.96 488.431 554.047 489.095C554.048 489.241 554.08 489.385 554.141 489.518C554.203 489.651 554.291 489.769 554.401 489.864C554.571 489.944 554.759 489.977 554.946 489.96H558.636C558.72 486.719 558.365 483.481 557.581 480.335C557.53 480.094 557.438 479.864 557.309 479.654C556.996 479.311 556.584 479.074 556.131 478.974C555.229 478.598 554.254 478.429 553.278 478.477C552.086 478.633 551.092 479.402 550.078 480.042C549.063 480.682 547.681 481.247 546.449 480.92C545.217 480.594 544.188 479.566 543.555 481.458Z" fill="#282F36"/>
<path d="M489.372 478.469C488.335 479.58 487.062 480.445 485.648 481.001L485.021 481.301C484.935 481.334 484.861 481.393 484.81 481.471C484.798 481.524 484.798 481.579 484.81 481.632C484.822 481.685 484.845 481.735 484.878 481.777C485.4 482.583 486.17 483.197 487.072 483.525C487.974 483.853 488.959 483.878 489.876 483.595C490.281 483.493 490.657 483.297 490.972 483.023C491.491 482.408 491.788 481.636 491.816 480.831C492.022 480.001 491.987 479.13 491.714 478.32C490.768 476.189 490.421 477.156 489.372 478.469Z" fill="#FFF1EF"/>
<path d="M503.521 486.855C503.541 487.113 503.502 487.371 503.405 487.611C503.085 488.237 502.193 488.203 501.498 488.067C501.393 485.757 501.113 483.459 500.661 481.192C499.34 481.131 498.387 482.383 497.679 483.506L495.854 486.399C495.59 486.897 495.218 487.33 494.765 487.665C494.4 487.865 494 487.992 493.587 488.04C490.101 488.618 486.581 487.522 483.217 486.433C482.722 486.3 482.247 486.099 481.808 485.834C481.208 485.394 480.801 484.738 480.674 484.004C480.548 483.271 480.71 482.517 481.127 481.9C482.536 479.994 485.702 480.539 487.459 478.96C487.276 480.071 486.974 481.159 486.56 482.206C488.909 481.852 490.489 479.701 492.382 478.265C492.857 477.862 493.43 477.59 494.043 477.476C494.502 477.437 494.964 477.486 495.405 477.619C497.587 478.168 499.629 479.172 501.396 480.566C502.111 481.131 503.228 481.927 503.541 482.799C503.875 483.84 503.521 485.746 503.521 486.855Z" fill="#282F36"/>
<path d="M550.357 262.276C558.126 262.276 564.424 255.98 564.424 248.213C564.424 240.446 558.126 234.15 550.357 234.15C542.588 234.15 536.291 240.446 536.291 248.213C536.291 255.98 542.588 262.276 550.357 262.276Z" fill="#FFF1EF"/>
<path d="M578.068 331.24C578.011 333.929 577.629 336.601 576.931 339.197C576.265 342.423 575.406 345.605 574.357 348.727C573.547 350.993 572.533 353.267 572.539 355.67C572.539 356.67 572.703 357.78 572.09 358.569C571.544 359.124 570.857 359.517 570.102 359.706C569.725 359.806 569.378 359.993 569.087 360.252C568.796 360.511 568.57 360.834 568.427 361.197C567.788 360.242 567.309 359.189 567.011 358.079C565.79 354.34 564.655 350.581 563.607 346.801C563.511 346.583 563.469 346.345 563.486 346.108C563.502 345.871 563.577 345.641 563.702 345.439C563.875 345.289 564.076 345.176 564.294 345.106C564.992 344.821 565.631 344.41 566.18 343.894C566.438 343.666 566.65 343.391 566.807 343.084C567.004 342.596 567.095 342.072 567.072 341.546C567.072 339.742 567.072 337.945 567.024 336.141C566.996 334.476 567.06 332.81 567.215 331.152C567.215 330.825 567.276 330.301 567.331 329.743C567.433 328.674 567.637 327.436 568.216 327.02C569.081 326.442 571.668 327.218 572.648 327.354C574.337 327.585 576.053 327.858 577.7 328.177C577.94 329.181 578.063 330.209 578.068 331.24Z" fill="#282F36"/>
<path d="M521.271 263.957C520.726 265.046 519.419 265.57 518.411 266.258L514.959 268.626C514.728 268.834 514.458 268.993 514.164 269.094C513.871 269.194 513.56 269.234 513.25 269.212C512.969 269.108 512.712 268.949 512.493 268.745C512.274 268.54 512.099 268.294 511.977 268.02C511.979 268.002 511.979 267.984 511.977 267.966L511.262 266.768L507.858 261.064C507.479 260.553 507.259 259.943 507.224 259.308C507.224 259.015 507.327 258.743 507.354 258.45C507.363 257.628 507.126 256.822 506.673 256.136C506.401 255.625 505.856 255.203 505.869 254.632C505.843 253.88 505.973 253.132 506.251 252.433C506.608 251.787 507.12 251.239 507.742 250.84C508.062 250.609 508.389 250.391 508.729 250.16C508.91 250.036 509.11 249.944 509.321 249.887C509.887 249.772 510.445 250.241 511.017 250.262C513.475 251.909 514.421 255.027 516.355 257.273C517.444 258.552 517.553 259.533 518.785 260.676C518.983 260.853 519.173 261.044 519.357 261.241C519.601 261.507 519.807 261.804 519.97 262.126C520.195 262.711 521.55 263.399 521.271 263.957Z" fill="#282F36"/>
<path d="M545.414 262.283C546.428 264.427 547.218 266.782 546.925 269.137C546.865 269.775 546.663 270.391 546.333 270.941C545.352 272.445 543.296 272.717 541.506 272.806C541.128 272.774 540.749 272.818 540.388 272.935C540.028 273.052 539.695 273.239 539.409 273.486C539.169 273.834 539.052 274.251 539.076 274.672C539.099 275.094 539.262 275.495 539.538 275.814C540.113 276.428 540.828 276.895 541.621 277.176C544.454 278.421 547.511 279.449 550.588 279.163C552.018 279.027 553.407 278.612 554.83 278.401C556.381 278.233 557.94 278.146 559.501 278.142C561.353 278.074 563.198 277.89 565.043 277.706L569.932 277.223C570.199 277.227 570.458 277.133 570.66 276.958C571.021 276.536 570.558 275.916 570.109 275.596C567.515 273.677 564.212 272.356 562.735 269.47C562.054 268.109 561.843 266.489 561.339 265.019C560.835 263.549 560.032 262.221 559.719 260.724C559.552 259.41 559.477 258.086 559.494 256.762C559.511 255.427 559.025 254.134 558.132 253.141C557.159 252.236 555.749 252.004 554.428 251.95C551.174 251.807 547.708 252.583 545.4 254.877C544.781 255.496 544.25 256.238 543.609 256.796C542.969 257.355 542.098 257.518 542.52 258.253C542.942 258.988 543.773 259.444 544.222 260.091C544.677 260.789 545.076 261.521 545.414 262.283V262.283Z" fill="#FFF1EF"/>
<path d="M573.146 282.083C572.287 287.324 570.891 292.463 568.979 297.418C568.018 299.656 567.199 301.952 566.528 304.293C566.003 306.403 566.105 308.663 565.622 310.78C565.023 313.414 564.424 316.055 563.94 318.709C563.129 322.763 562.805 326.899 562.973 331.029C562.975 331.68 563.1 332.324 563.341 332.929C563.566 333.419 563.927 333.841 564.138 334.344C564.296 334.787 564.36 335.257 564.327 335.726C564.295 336.194 564.165 336.651 563.947 337.067C563.598 337.846 563.124 338.563 562.545 339.191C556.199 341.083 549.411 340.464 542.8 340.865C536.706 341.233 530.544 342.485 524.539 341.444C523.858 338.721 524.995 335.869 525.969 333.214C528.794 325.502 531.919 317.471 531.416 309.391C531.363 308.449 531.256 307.51 531.096 306.58C530.108 300.855 531.184 294.927 532.907 289.379C533.976 285.922 533.928 282.239 533.683 278.638C533.562 277.469 533.546 276.291 533.635 275.119C533.734 273.922 534.178 272.78 534.915 271.832C534.915 271.784 534.976 271.736 535.01 271.689C535.045 271.641 535.31 271.648 535.521 271.689C535.575 271.712 535.633 271.723 535.691 271.723C535.75 271.723 535.808 271.712 535.862 271.689L535.936 271.641C535.965 271.621 536 271.61 536.035 271.61C536.071 271.61 536.105 271.621 536.134 271.641C536.291 271.736 536.379 272.063 536.719 272.124C537.222 272.2 537.729 272.248 538.238 272.267C538.849 272.285 539.457 272.372 540.049 272.526H540.131C541.016 272.675 541.925 272.598 542.772 272.301C543.336 272.16 543.881 271.95 544.393 271.675C544.543 271.512 545.482 271.362 545.673 271.246C546.292 270.872 546.156 269.116 546.286 268.394C546.357 267.671 546.529 266.961 546.796 266.284C547.106 265.785 547.534 265.37 548.042 265.074C548.55 264.779 549.123 264.612 549.71 264.589C550.883 264.561 552.054 264.666 553.203 264.902C555.743 265.263 558.344 265.202 560.836 265.787C562.088 266.08 563.457 266.522 564.608 265.951C564.921 266.026 564.968 266.298 564.968 266.631C564.939 266.948 564.875 267.261 564.778 267.564C564.342 269.443 565.819 271.171 567.181 272.533C567.757 273.174 568.435 273.715 569.19 274.132C569.871 274.445 570.551 274.575 571.232 274.915C571.784 275.209 572.252 275.638 572.594 276.161C572.987 276.76 573.251 277.435 573.37 278.141C573.516 279.458 573.44 280.791 573.146 282.083Z" fill="#282F36"/>
<path opacity="0.1" d="M573.145 282.083C572.287 287.324 570.891 292.463 568.979 297.418C568.017 299.656 567.199 301.952 566.527 304.293C566.003 306.403 566.105 308.663 565.622 310.78C565.023 313.414 564.424 316.055 563.94 318.71C563.797 318.791 563.647 318.866 563.498 318.934C562.651 319.339 561.753 319.627 560.829 319.792C559.169 319.993 557.488 319.938 555.845 319.629L546.129 318.329C542.248 317.804 538.115 317.171 535.235 314.544C533.635 313.101 532.587 311.195 531.436 309.357C531.383 308.415 531.276 307.476 531.116 306.546C530.129 300.822 531.204 294.893 532.927 289.346C533.996 285.888 533.948 282.205 533.703 278.605C533.582 277.435 533.566 276.258 533.655 275.086C533.754 273.889 534.199 272.746 534.935 271.798C535.134 271.74 535.337 271.694 535.541 271.662C535.678 271.634 535.817 271.616 535.957 271.607H536.154C536.384 271.608 536.612 271.636 536.835 271.689C537.299 271.837 537.754 272.012 538.197 272.213H538.279C538.862 272.405 539.475 272.493 540.09 272.472C540.988 272.472 541.914 272.329 542.813 272.268C543.923 272.094 545.06 272.298 546.04 272.846C546.673 273.355 547.274 273.903 547.838 274.487C548.519 275.022 549.286 275.438 550.105 275.719C555.966 277.955 562.468 277.818 568.23 275.337C568.783 275.023 569.411 274.863 570.047 274.875C570.518 274.967 570.963 275.157 571.355 275.433C571.763 275.671 572.165 275.902 572.58 276.113C572.973 276.713 573.237 277.388 573.356 278.094C573.513 279.426 573.441 280.775 573.145 282.083Z" fill="#282F36"/>
<path d="M579.076 277.576C576.364 276.749 573.759 275.606 571.314 274.173C570.921 273.899 570.476 273.709 570.007 273.615C569.368 273.607 568.739 273.767 568.182 274.078C562.423 276.558 555.923 276.695 550.064 274.459C549.246 274.176 548.48 273.76 547.797 273.227C547.231 272.645 546.631 272.097 545.999 271.587C543.759 270.137 540.661 271.838 538.156 270.906C537.711 270.708 537.257 270.533 536.794 270.382C534.813 269.885 532.797 271.859 530.85 271.26C530.126 273.229 529.59 275.262 529.25 277.331C528.973 279.709 528.826 282.099 528.808 284.492C528.808 285.928 528.74 287.365 528.808 288.801C529.048 288.84 529.277 288.929 529.481 289.061C529.685 289.193 529.859 289.367 529.992 289.57C530.082 289.807 530.118 290.061 530.099 290.314C530.081 290.566 530.007 290.812 529.883 291.033C528.46 294.689 527.017 298.385 524.859 301.659C526.38 302.565 527.792 303.643 529.066 304.871C531.449 307.39 532.62 310.923 535.194 313.25C538.095 315.871 542.227 316.511 546.088 317.028L555.804 318.328C557.449 318.636 559.132 318.693 560.794 318.498C561.716 318.33 562.612 318.039 563.457 317.634C564.009 317.403 564.512 317.071 564.941 316.654C565.3 316.246 565.596 315.787 565.819 315.292C566.589 313.754 567.29 312.182 567.937 310.589C568.161 310.024 568.502 309.364 569.115 309.316C572.723 306.063 576.128 302.727 579.736 299.474C581.186 298.272 582.487 296.901 583.61 295.39C585.401 292.742 583.774 288.991 583.61 285.792C583.59 284.974 583.488 284.16 583.304 283.362C582.718 281.041 581.343 278.264 579.076 277.576Z" fill="#FF7360"/>
<path opacity="0.1" d="M521.271 263.957C520.726 265.046 519.419 265.57 518.411 266.257L514.959 268.626C514.728 268.834 514.458 268.993 514.164 269.093C513.871 269.194 513.56 269.234 513.25 269.211C512.969 269.108 512.712 268.949 512.493 268.744C512.274 268.54 512.099 268.294 511.977 268.02C511.977 267.864 511.977 267.694 511.977 267.53C511.951 266.979 512.024 266.428 512.195 265.903C512.533 265.134 513.057 264.46 513.72 263.943C515.002 262.73 516.526 261.802 518.193 261.22C518.453 261.119 518.735 261.091 519.01 261.139C519.116 261.166 519.217 261.21 519.31 261.268C519.553 261.534 519.76 261.831 519.923 262.153C520.195 262.711 521.55 263.399 521.271 263.957Z" fill="#282F36"/>
<path d="M529.4 271.131C528.243 271.077 527.296 270.24 526.452 269.443L523.872 267.047C523.699 266.901 523.548 266.732 523.422 266.543C523.283 266.279 523.177 265.997 523.109 265.706C522.562 264.331 521.704 263.101 520.603 262.112C520.411 261.868 520.154 261.684 519.861 261.581C519.584 261.53 519.299 261.559 519.037 261.663C517.37 262.243 515.845 263.171 514.564 264.386C513.902 264.903 513.378 265.577 513.039 266.346C512.868 266.871 512.794 267.422 512.821 267.973C512.837 269.771 513.241 271.545 514.006 273.173C514.122 273.425 514.251 273.677 514.387 273.922C515.296 275.423 516.369 276.818 517.587 278.081L519.208 279.891C520.801 281.675 522.394 283.458 524.123 285.099C524.743 285.76 525.495 286.284 526.329 286.637C526.748 286.808 527.206 286.86 527.653 286.788C528.1 286.716 528.518 286.522 528.862 286.228C529.188 285.851 529.434 285.411 529.584 284.935C530.632 282.213 531.627 279.381 531.688 276.447C531.702 275.272 531.652 274.098 531.538 272.928C531.436 271.689 530.558 271.206 529.4 271.131Z" fill="#FF7360"/>
<path d="M570.66 366.425C570.621 373.272 570.134 380.109 569.203 386.892C569.067 387.988 568.917 389.084 568.842 390.18C568.618 393.359 568.985 396.551 568.686 399.709C568.529 401.418 568.175 403.113 567.876 404.78C566.545 412.223 566.156 419.804 566.718 427.345C567.658 439.889 564.778 452.441 566.085 464.952C566.243 467.384 566.109 469.827 565.683 472.228C565.44 473.717 565.087 475.187 564.628 476.625C563.634 480.033 562.635 483.436 561.632 486.835C561.514 487.352 561.281 487.836 560.951 488.251C560.604 488.551 560.197 488.774 559.756 488.904C559.316 489.034 558.853 489.069 558.398 489.006C554.469 488.884 550.772 487.189 547.205 485.535C546.794 485.373 546.415 485.143 546.081 484.854C545.339 484.085 545.4 482.874 545.074 481.859C544.747 480.845 543.862 479.892 543.358 478.851C542.944 477.866 542.693 476.82 542.616 475.754C542.162 472.269 541.853 468.77 541.69 465.258C541.431 460.316 544.699 455.769 545.775 450.964C547.817 441.516 546.088 431.388 549.717 422.423C550.861 419.592 549.2 416.161 549.036 413.112C548.977 411.145 548.722 409.188 548.274 407.272C547.593 404.712 546.156 402.303 546.054 399.648C545.979 397.729 546.599 395.857 546.919 393.965C547.343 391.18 547.304 388.344 546.803 385.572C546.442 383.285 545.891 380.998 545.339 378.765L545.217 379.017C543.558 382.258 542.131 385.614 540.948 389.057C540.403 390.725 539.926 392.426 539.245 394.046C538.687 395.408 537.999 396.653 537.325 397.933C534.908 402.446 532.803 407.119 531.027 411.921C530.183 414.276 529.441 416.685 528.706 419.047L523.66 435.383C522.299 439.678 520.808 443.83 519.473 448.119C517.587 454.245 515.701 460.316 513.509 466.306C511.466 471.99 509.036 477.877 509.764 483.881C507.887 484.763 505.825 485.181 503.752 485.099C500.243 484.789 496.8 483.954 493.539 482.622C492.239 482.138 490.891 481.594 490.012 480.525C488.501 478.681 488.875 475.978 489.331 473.63C489.503 472.572 489.777 471.532 490.149 470.526C490.666 469.274 491.51 468.164 492.041 466.926C493.11 464.55 493.178 461.861 493.6 459.282C494.023 456.702 494.962 453.979 497.168 452.577C497.543 448.044 499.408 443.572 500.436 439.141C501.213 435.785 501.471 432.334 502.084 428.931C502.697 425.527 503.684 422.124 505.74 419.367C505.578 416.525 506.22 413.694 507.592 411.199C507.924 410.651 508.195 410.069 508.402 409.463C508.529 408.872 508.602 408.271 508.62 407.666C508.845 405.301 509.857 403.08 511.493 401.357C510.813 398.872 511.759 396.279 512.61 393.869C513.682 390.795 514.167 387.546 514.04 384.292C513.934 383.384 513.978 382.464 514.169 381.57C514.36 380.889 514.734 380.31 514.952 379.657C515.147 378.857 515.249 378.037 515.259 377.213C515.524 373.531 517.015 370.059 518.663 366.772C519.643 364.852 518.813 362.245 519.017 360.108C519.371 356.555 519.759 352.879 521.523 349.782C521.849 349.197 522.203 348.639 522.496 348.033C522.851 347.168 523.043 346.245 523.061 345.31C523.123 343.752 523.34 342.458 522.782 341.008C526.425 337.979 531.395 337.129 536.134 336.924C540.873 336.72 545.666 337.149 550.303 336.142C551.664 335.835 553.026 335.413 554.463 335.209C557.724 334.733 561.033 335.475 564.253 336.21C564.029 338.252 564.778 340.212 565.615 342.111C568.885 349.804 570.599 358.067 570.66 366.425Z" fill="#282F36"/>
<path opacity="0.1" d="M554.626 367.983L546.803 385.572C546.442 383.285 545.891 380.998 545.339 378.765L545.217 379.017V378.65L549.479 369.277L554.626 367.983Z" fill="#282F36"/>
<path opacity="0.1" d="M578.068 331.24C577.617 331.578 577.078 331.779 576.516 331.819C575.653 331.85 574.792 331.732 573.969 331.472L567.842 329.94C567.649 329.893 567.462 329.827 567.283 329.743C567.385 328.674 567.59 327.436 568.168 327.02C569.033 326.442 571.62 327.218 572.601 327.354C574.289 327.585 576.005 327.858 577.653 328.177C577.908 329.179 578.048 330.207 578.068 331.24Z" fill="#282F36"/>
<path d="M583.249 290.741C583.379 291.306 583.563 291.864 583.672 292.436C583.855 293.839 583.806 295.262 583.529 296.65L582.97 300.543L582.412 304.457L580.254 319.52L579.723 323.25L578.974 328.457C578.938 328.89 578.828 329.314 578.647 329.71C578.424 330.08 578.112 330.388 577.74 330.608C577.368 330.828 576.948 330.952 576.516 330.969C575.653 330.996 574.793 330.879 573.969 330.622L567.842 329.083C567.573 329.036 567.318 328.931 567.093 328.777C566.905 328.594 566.77 328.365 566.701 328.112C566.631 327.86 566.63 327.594 566.698 327.341C566.786 326.824 567.011 326.34 567.086 325.823C567.236 324.816 566.813 323.781 566.963 322.78C567.11 322.143 567.339 321.528 567.644 320.949C569.687 316.437 568.502 311.168 569.196 306.267C569.821 302.41 571.451 298.786 573.922 295.758C575.446 293.847 577.198 292.128 579.137 290.639C579.9 290.047 581.112 288.829 582.072 288.597C583.304 288.339 583.045 289.884 583.249 290.741Z" fill="#FF7360"/>
<path d="M536.876 232.108C536.427 233.537 537.128 235.109 536.808 236.566C536.461 238.172 534.949 239.289 534.52 240.902C533.839 243.359 535.923 245.598 537.448 247.64C543.099 255.223 542.357 265.719 540.423 274.969C538.867 282.391 536.716 289.675 533.989 296.751C533.138 298.949 532.198 301.182 530.523 302.829C533.655 301.931 536.985 301.025 540.124 301.897C544.1 302.999 547.531 306.859 551.562 305.981C553.986 305.443 555.688 303.292 557.867 302.101C561.952 299.902 566.875 301.284 571.43 301.992C572.411 302.223 573.438 302.171 574.391 301.842C575.12 301.451 575.738 300.882 576.189 300.188C578.222 297.581 579.439 294.432 579.688 291.135C579.796 289.494 579.554 287.848 578.978 286.308C578.401 284.767 577.504 283.366 576.345 282.198C575.379 281.286 574.221 280.551 573.479 279.475C572.757 278.219 572.37 276.799 572.356 275.351C571.818 267.863 573.642 260.219 571.763 252.977C571.082 250.397 569.973 247.926 569.673 245.285C569.298 241.998 570.19 238.479 568.883 235.47C567.855 233.081 565.588 231.386 563.143 230.515C560.699 229.644 558.085 229.399 555.491 229.154C551.759 228.84 538.435 227.241 536.876 232.108Z" fill="#282F36"/>
<g opacity="0.1">
<path opacity="0.1" d="M540.423 274.969C538.875 282.36 536.735 289.615 534.023 296.662C534.493 295.73 534.888 294.75 535.262 293.776C537.992 286.702 540.144 279.417 541.696 271.995C543.637 262.738 544.379 252.256 538.728 244.666C537.366 242.856 535.616 240.895 535.677 238.771C535.174 239.414 534.783 240.136 534.52 240.909C533.839 243.366 535.923 245.605 537.448 247.647C543.099 255.223 542.357 265.719 540.423 274.969Z" fill="#282F36"/>
<path opacity="0.1" d="M536.89 235.878C537.436 235.2 537.843 234.421 538.088 233.585C538.193 232.573 538.166 231.553 538.006 230.549C537.482 230.943 537.088 231.486 536.876 232.108C536.474 233.312 536.937 234.619 536.89 235.878Z" fill="#282F36"/>
<path opacity="0.1" d="M577.469 297.193C577.018 297.884 576.4 298.451 575.671 298.84C574.72 299.176 573.69 299.228 572.71 298.99C568.155 298.309 563.178 296.907 559.147 299.106C556.961 300.29 555.266 302.441 552.835 302.985C548.811 303.884 545.38 300.024 541.404 298.901C538.585 298.119 535.616 298.765 532.777 299.582C532.213 300.785 531.451 301.885 530.523 302.836C533.655 301.937 536.985 301.032 540.124 301.903C544.1 303.006 547.531 306.865 551.562 305.987C553.986 305.449 555.688 303.298 557.867 302.107C561.952 299.909 566.875 301.29 571.43 301.998C572.411 302.23 573.438 302.178 574.391 301.849C575.12 301.457 575.738 300.888 576.189 300.195C577.423 298.567 578.375 296.745 579.008 294.804C578.553 295.636 578.038 296.434 577.469 297.193Z" fill="#282F36"/>
</g>
<defs>
<filter id="filter0_d_166_2511" x="0.633057" y="0.0136719" width="669.882" height="420.569" filterUnits="userSpaceOnUse" color-interpolation-filters="sRGB">
<feFlood flood-opacity="0" result="BackgroundImageFix"/>
<feColorMatrix in="SourceAlpha" type="matrix" values="0 0 0 0 0 0 0 0 0 0 0 0 0 0 0 0 0 0 127 0" result="hardAlpha"/>
<feOffset dx="-4" dy="4"/>
<feComposite in2="hardAlpha" operator="out"/>
<feColorMatrix type="matrix" values="0 0 0 0 0 0 0 0 0 0 0 0 0 0 0 0 0 0 1 0"/>
<feBlend mode="normal" in2="BackgroundImageFix" result="effect1_dropShadow_166_2511"/>
<feBlend mode="normal" in="SourceGraphic" in2="effect1_dropShadow_166_2511" result="shape"/>
</filter>
<linearGradient id="paint0_linear_166_2511" x1="480.31" y1="358.855" x2="584.482" y2="358.855" gradientUnits="userSpaceOnUse">
<stop stop-color="#808080" stop-opacity="0.25"/>
<stop offset="0.54" stop-color="#808080" stop-opacity="0.12"/>
<stop offset="1" stop-color="#808080" stop-opacity="0.1"/>
</linearGradient>
</defs>
</svg>
