<svg width="203" height="146" viewBox="0 0 203 146" fill="none" xmlns="http://www.w3.org/2000/svg">
<path opacity="0.1" d="M79.5926 5.71777L0.806641 129.679H158.379L79.5926 5.71777Z" fill="#18E597"/>
<path opacity="0.1" d="M22.8963 145.046L78.4891 94.5487L0 73.5176L22.8963 145.046Z" fill="#18E597"/>
<circle opacity="0.1" r="42.1448" transform="matrix(-1 0 0 1 160.367 86.6292)" fill="#18E597"/>
<path d="M129.942 8.24299C129.593 8.25037 129.328 8.55886 129.373 8.90473C129.753 11.852 131.297 24.2088 131.531 32.5453C131.793 41.8487 130.692 55.7434 130.429 58.8843C130.4 59.2333 130.68 59.5243 131.03 59.5169C131.319 59.5108 131.561 59.2909 131.6 59.0045C134.161 40.232 133.979 29.0477 130.531 8.73437C130.483 8.44892 130.231 8.23685 129.942 8.24299Z" fill="#E56856"/>
<rect x="132.74" y="9.9375" width="83.0969" height="2.16782" rx="1.08391" transform="rotate(-174.629 132.74 9.9375)" fill="#EEEEEF"/>
<circle opacity="0.1" r="26.6178" transform="matrix(-1 0 0 1 41.3266 32.6549)" fill="#18E597"/>
<g clip-path="url(#clip0_179_2734)">
<path fill-rule="evenodd" clip-rule="evenodd" d="M126.819 55.4534C125.983 55.1668 125.146 54.9432 124.313 54.776C123.89 54.6905 123.511 54.6322 123.164 54.5915C122.805 54.5471 122.444 54.5258 122.073 54.5175C116.766 54.3914 114.631 57.7896 112.042 61.889C111.762 62.3338 111.472 62.7858 111.254 63.1235C105.968 71.2884 101.72 79.7586 98.2954 88.3347C94.8764 96.9099 92.2882 105.601 90.3364 114.19C90.2072 114.758 90.1857 114.836 90.1735 114.901C89.8366 116.29 89.6747 116.972 90.686 117.675C91.6072 118.313 92.1862 117.997 93.3286 117.372C93.6259 117.21 93.9852 117.009 94.0692 116.967C100.658 113.508 107.428 108.93 114.44 102.898C121.421 96.8886 128.653 89.4121 136.191 80.146C137.194 78.9107 136.006 80.3755 136.67 79.5662C139.566 76.0274 141.477 73.6981 140.309 68.8789C140.243 68.6101 140.161 68.3153 140.064 68.0001C139.968 67.6905 139.868 67.3873 139.757 67.0859C139.207 65.5891 138.387 64.1706 137.374 62.8631C137.204 61.2535 133.024 58.6284 126.819 55.4534Z" fill="#FFF1EF"/>
<path fill-rule="evenodd" clip-rule="evenodd" d="M134.203 77.5229C134.503 77.1524 134.315 77.3805 134.203 77.5229V77.5229Z" fill="#FF7360"/>
<path fill-rule="evenodd" clip-rule="evenodd" d="M124.909 71.4394C125.578 71.9241 125.731 72.8691 125.25 73.546C124.769 74.2174 123.828 74.37 123.153 73.8862L112.908 66.4604C108.803 73.0134 105.353 79.7853 102.451 86.6452L108.783 91.2315C109.452 91.7163 109.605 92.6612 109.124 93.3382C108.643 94.0096 107.702 94.1621 107.027 93.6783L101.281 89.5161L101.277 89.5281C98.1084 97.4752 95.6655 105.521 93.7905 113.498C97.0993 111.701 100.465 109.592 103.891 107.148L99.0731 103.668C98.4039 103.183 98.2506 102.238 98.7314 101.561C99.2131 100.89 100.154 100.737 100.829 101.221L106.427 105.276C108.39 103.794 110.367 102.19 112.37 100.467C115.993 97.3469 119.686 93.8214 123.46 89.8493L113.062 82.3228C112.393 81.8381 112.239 80.8932 112.72 80.2162C113.202 79.5448 114.143 79.3922 114.817 79.8761L125.519 87.6327C128.212 84.6974 130.947 81.5327 133.727 78.1211L134.205 77.5302C134.139 77.615 134.095 77.662 134.205 77.5302C136.494 74.7344 137.991 72.9 137.205 69.6276C137.149 69.3913 137.084 69.1623 137.019 68.9389C136.947 68.7053 136.861 68.4568 136.76 68.1823C136.301 66.9275 135.584 65.7261 134.694 64.6155C133.719 63.4044 132.522 62.2922 131.221 61.3396C130.061 60.4895 128.801 59.7583 127.519 59.1733C126.244 58.5929 124.948 58.1698 123.703 57.9153C123.416 57.8593 123.118 57.8106 122.812 57.7747C122.517 57.7427 122.252 57.7228 122.013 57.7161C118.501 57.6297 116.793 60.3368 114.737 63.591L114.524 63.9223L124.909 71.4394Z" fill="#FF7360"/>
<path fill-rule="evenodd" clip-rule="evenodd" d="M149.762 59.4162C146.332 56.3673 142.907 55.1373 139.374 55.7275C143.197 51.987 145.396 46.2565 145.07 41.0214C139.372 42.727 135.111 46.493 133.013 51.4881C132.566 47.75 130.31 44.733 126.192 42.3433C124.022 46.2264 123.667 51.4924 126.693 55.6907L137.906 63.4102C142.511 64.4601 146.964 62.5056 149.762 59.4162Z" fill="#18E597"/>
<path fill-rule="evenodd" clip-rule="evenodd" d="M149.763 59.4158C146.332 56.3669 142.907 55.1369 139.374 55.7271C137.399 57.696 134.809 58.8121 131.615 59.0791L137.9 63.4106C142.511 64.4597 146.964 62.5052 149.763 59.4158Z" fill="#68B99A"/>
</g>
<defs>
<clipPath id="clip0_179_2734">
<rect width="68.2193" height="69.1939" fill="white" transform="translate(79.1207 49.9785) rotate(-9.21293)"/>
</clipPath>
</defs>
</svg>
