<svg width="24" height="20" viewBox="0 0 24 20" fill="none" xmlns="http://www.w3.org/2000/svg">
<path d="M24 3.4566V17.3656C24 18.2696 23.268 19.0016 22.364 19.0016H18.545V9.7296L12 14.6396L5.455 9.7296V19.0026H1.636C1.42107 19.0026 1.20825 18.9603 1.0097 18.878C0.811145 18.7957 0.63075 18.6751 0.47882 18.5231C0.32689 18.3711 0.206404 18.1906 0.124246 17.992C0.0420884 17.7934 -0.000131068 17.5805 3.05652e-07 17.3656V3.4566C3.05652e-07 1.4336 2.309 0.278601 3.927 1.4926L5.455 2.6396L12 7.5476L18.545 2.6376L20.073 1.4926C21.69 0.279601 24 1.4336 24 3.4566Z" fill="white"/>
</svg>
