<svg width="214" height="119" viewBox="0 0 214 119" fill="none" xmlns="http://www.w3.org/2000/svg">
<path opacity="0.1" d="M154.132 95.8412L213.581 27.2673L131.317 8.00048L154.132 95.8412Z" fill="#FF7360"/>
<path opacity="0.1" d="M60.2835 106.885L120.921 23.3189L0 38.9346L60.2835 106.885Z" fill="#FF7360"/>
<path opacity="0.1" d="M118.773 105.777L100.161 74.9466L83 109.929L118.773 105.777Z" fill="#FF7360"/>
<circle opacity="0.1" r="32.5" transform="matrix(-1 0 0 1 116.5 59.5)" fill="#FF7360"/>
<path d="M125.941 26.825L123.297 27.5604C122.753 27.7118 122.295 28.1743 122.291 28.7619C122.512 31.9678 118.962 35.4687 113.907 36.8746C108.93 38.2589 104.082 37.0939 102.616 34.2341C102.331 33.8108 101.679 33.5734 101.134 33.7248L98.4902 34.4602C98.1014 34.5683 97.7559 34.832 97.6091 35.2079C97.5401 35.5622 97.5704 35.9727 97.7564 36.3399L107.212 54.0688C107.769 55.1703 108.997 55.6668 110.163 55.3424L126.727 50.7353C127.816 50.4325 128.688 49.3521 128.597 48.1207L127.54 28.0559C127.432 27.6671 127.324 27.2782 127.026 27.1098C126.706 26.8637 126.252 26.7385 125.941 26.825ZM119.75 28.9658C119.785 28.7887 119.819 28.6115 119.798 28.5337L118.389 14.4316C118.359 14.0211 118.073 13.5978 117.697 13.451C117.3 13.2264 116.811 13.2785 116.444 13.4644L114.017 14.9774C113.671 15.2411 113.503 15.5393 113.434 15.8936L117.911 31.9909C119.138 30.9795 119.811 29.7867 119.75 28.9658ZM125.171 24.3582L124.382 16.7022C124.352 16.2918 124.144 15.8468 123.691 15.7217C123.293 15.4971 122.805 15.5491 122.438 15.735L121.224 16.4916L122.082 25.3011C122.216 25.1801 122.372 25.1368 122.605 25.072L125.171 24.3582ZM115.639 33.4607L110.513 15.0304C110.383 14.5638 109.964 14.2615 109.51 14.1364L106.753 13.5627C106.321 13.5153 105.854 13.645 105.53 13.9865C105.206 14.3279 105.159 14.76 105.267 15.1488L110.739 34.8233C112.481 34.7579 114.114 34.3037 115.639 33.4607ZM100.52 31.2147C100.753 31.1498 101.008 31.1626 101.319 31.0761L97.4712 23.2656L95.7861 23.2316C95.3756 23.262 94.9307 23.4696 94.6845 23.7894C94.46 24.187 94.4342 24.6968 94.6201 25.064L97.8759 31.9501L100.52 31.2147ZM108.035 34.7378L103.168 17.2407L102.424 15.772C102.295 15.3054 101.819 15.1025 101.465 15.0334C100.955 15.0077 100.489 15.1375 100.186 15.5567L98.4631 17.7954C98.1608 18.2146 98.135 18.7244 98.3426 19.1694L105.481 33.6888C106.043 34.2027 106.894 34.5524 108.035 34.7378Z" fill="black"/>
<path d="M127.139 24.7049L124.495 25.4403C123.95 25.5917 123.493 26.0542 123.488 26.6418C123.71 29.8477 120.159 33.3486 115.105 34.7545C110.128 36.1387 105.28 34.9738 103.814 32.114C103.529 31.6907 102.876 31.4532 102.332 31.6046L99.6878 32.34C99.299 32.4482 98.9534 32.7119 98.8067 33.0878C98.7376 33.4421 98.768 33.8526 98.9539 34.2198L108.409 51.9486C108.967 53.0502 110.194 53.5467 111.361 53.2223L127.924 48.6152C129.013 48.3124 129.886 47.232 129.794 46.0006L128.738 25.9358C128.63 25.5469 128.522 25.1581 128.223 24.9897C127.904 24.7435 127.45 24.6184 127.139 24.7049ZM120.948 26.8457C120.983 26.6685 121.017 26.4914 120.995 26.4136L119.586 12.3114C119.556 11.901 119.271 11.4777 118.895 11.3309C118.497 11.1063 118.009 11.1583 117.642 11.3443L115.214 12.8573C114.869 13.121 114.7 13.4192 114.631 13.7735L119.108 29.8708C120.335 28.8593 121.009 27.6666 120.948 26.8457ZM126.369 22.2381L125.58 14.5821C125.55 14.1717 125.342 13.7267 124.888 13.6015C124.491 13.377 124.003 13.429 123.635 13.6149L122.422 14.3714L123.28 23.181C123.414 23.06 123.569 23.0167 123.803 22.9518L126.369 22.2381ZM116.836 31.3406L111.71 12.9103C111.58 12.4437 111.161 12.1414 110.707 12.0163L107.951 11.4425C107.519 11.3952 107.052 11.5249 106.728 11.8664C106.404 12.2078 106.357 12.6399 106.465 13.0287L111.937 32.7032C113.678 32.6378 115.311 32.1836 116.836 31.3406ZM101.717 29.0945C101.951 29.0297 102.206 29.0425 102.517 28.956L98.6687 21.1455L96.9837 21.1115C96.5732 21.1419 96.1282 21.3494 95.8821 21.6693C95.6575 22.0668 95.6318 22.5767 95.8177 22.9439L99.0734 29.8299L101.717 29.0945ZM109.232 32.6177L104.366 15.1206L103.622 13.6518C103.492 13.1853 103.017 12.9823 102.663 12.9133C102.153 12.8876 101.686 13.0173 101.384 13.4366L99.6607 15.6752C99.3584 16.0944 99.3326 16.6043 99.5401 17.0492L106.678 31.5686C107.24 32.0826 108.092 32.4323 109.232 32.6177Z" fill="#FF7360"/>
<path d="M88.9857 81.3095L69.0963 98.1426C67.761 99.2325 65.8023 99.0343 64.8057 97.7085L48.5982 77.2227C43.9223 71.2843 45.1082 62.3583 51.4942 57.9162C56.9745 54.042 64.6313 55.6648 68.8136 60.8937L70.4809 63.0412L72.4513 61.2618C77.5963 56.9767 85.3297 56.9112 90.1095 61.8236C95.3828 67.4456 94.7565 76.4282 88.9857 81.3095Z" fill="black"/>
<path d="M91.177 79.5204L71.2875 96.3536C69.9522 97.4434 67.9935 97.2452 66.9969 95.9194L50.7895 75.4336C46.1136 69.4952 47.2995 60.5693 53.6854 56.1271C59.1658 52.2529 66.8225 53.8757 71.0049 59.1046L72.6721 61.2521L74.6425 59.4727C79.7876 55.1877 87.521 55.1222 92.3007 60.0346C97.574 65.6565 96.9477 74.6391 91.177 79.5204Z" fill="#FF7360"/>
<path d="M157.515 69.5042L148.345 67.6303L145.945 61.8408C145.59 61.0218 146.383 60.0643 147.243 60.24L161.357 63.1242C162.216 63.2998 162.57 64.4916 161.922 65.1056L157.515 69.5042ZM147.876 69.9229L157.047 71.7969C157.218 72.0557 157.532 72.3439 157.775 72.6173C161.331 76.0311 169.002 83.4201 166.586 95.2414C165.81 99.0386 162.1 101.49 158.303 100.714L135.376 96.0288C131.508 95.2382 129.128 91.5426 129.904 87.7455C132.32 75.9242 142.202 72.122 146.813 70.3773C147.144 70.221 147.546 70.0792 147.876 69.9229ZM152.489 78.0305C152.65 77.2425 152.137 76.4659 151.277 76.2902C150.489 76.1292 149.713 76.6422 149.551 77.4303L149.464 77.8601C149.076 77.9302 148.632 77.914 148.301 78.0704C147.139 78.2807 146.017 79.0217 145.467 80.2527C145.249 80.9546 145.174 81.6856 145.329 82.389C145.484 83.0924 145.897 83.6247 146.254 84.0708C146.997 84.8196 148.013 85.3258 148.814 85.7881L148.957 85.8173C149.887 86.3805 150.488 86.7272 150.859 87.1017C151.045 87.2889 151.102 87.3752 151.087 87.4468C151.072 87.5184 151.115 87.6764 150.985 87.9483C150.941 88.1632 150.754 88.3489 150.28 88.476C149.821 88.5314 149.089 88.4567 148.187 88.1231C147.772 87.9636 147.1 87.6022 146.427 87.2409C146.298 87.14 146.17 87.039 146.041 86.9381C145.297 86.5621 144.421 86.831 144.06 87.5035C143.612 88.233 143.881 89.1089 144.553 89.4703C144.61 89.5566 144.754 89.5858 144.882 89.6868C145.34 90.0042 146.213 90.4811 146.828 90.7561L146.74 91.186C146.565 92.0457 147.078 92.8223 147.866 92.9833C148.726 93.159 149.502 92.646 149.678 91.7863L149.751 91.428C150.124 91.4296 150.511 91.3595 150.899 91.2894C152.133 91.0938 153.183 90.3381 153.748 89.0354C153.981 88.262 154.127 87.5455 153.972 86.8422C153.817 86.1388 153.404 85.6065 153.047 85.1604C152.319 84.3399 151.174 83.7328 150.373 83.2705L150.302 83.2559C149.357 82.7644 148.756 82.4177 148.385 82.0432C148.199 81.856 148.142 81.7697 148.157 81.6981C148.157 81.6981 148.1 81.6118 148.23 81.3399C148.259 81.1966 148.447 81.0109 148.92 80.8838C149.394 80.7568 150.125 80.8315 151.042 81.0935C151.314 81.2237 152.273 81.6436 152.473 81.7592C153.217 82.1351 154.108 81.7947 154.469 81.1222C154.845 80.378 154.505 79.4874 153.832 79.1261C153.489 78.9812 152.802 78.6915 152.386 78.5321L152.489 78.0305Z" fill="black"/>
<path d="M160.12 68.4447L150.95 66.5707L148.55 60.7812C148.195 59.9623 148.988 59.0047 149.848 59.1804L163.962 62.0646C164.821 62.2403 165.175 63.4321 164.527 64.046L160.12 68.4447ZM150.481 68.8633L159.652 70.7373C159.823 70.9961 160.137 71.2843 160.38 71.5578C163.936 74.9715 171.607 82.3605 169.191 94.1819C168.415 97.979 164.705 100.43 160.908 99.6542L137.981 94.9693C134.113 94.1787 131.733 90.4831 132.509 86.6859C134.925 74.8646 144.807 71.0625 149.418 69.3178C149.749 69.1614 150.151 69.0197 150.481 68.8633ZM155.094 76.971C155.255 76.1829 154.742 75.4063 153.882 75.2306C153.094 75.0696 152.317 75.5826 152.156 76.3707L152.069 76.8006C151.681 76.8707 151.237 76.8545 150.906 77.0108C149.744 77.2211 148.622 77.9621 148.072 79.1932C147.854 79.895 147.779 80.6261 147.934 81.3294C148.089 82.0328 148.502 82.5651 148.859 83.0112C149.601 83.76 150.618 84.2662 151.419 84.7285L151.562 84.7578C152.492 85.321 153.093 85.6677 153.464 86.0421C153.65 86.2293 153.707 86.3156 153.692 86.3872C153.677 86.4589 153.72 86.6168 153.59 86.8887C153.546 87.1037 153.358 87.2893 152.885 87.4164C152.425 87.4719 151.694 87.3971 150.792 87.0635C150.377 86.904 149.705 86.5427 149.032 86.1813C148.903 86.0804 148.775 85.9795 148.646 85.8785C147.902 85.5026 147.026 85.7714 146.665 86.4439C146.217 87.1734 146.486 88.0494 147.158 88.4107C147.215 88.497 147.359 88.5263 147.487 88.6272C147.945 88.9446 148.818 89.4215 149.433 89.6966L149.345 90.1264C149.17 90.9862 149.683 91.7627 150.471 91.9238C151.331 92.0995 152.107 91.5864 152.283 90.7267L152.356 90.3685C152.729 90.37 153.116 90.2999 153.504 90.2299C154.738 90.0342 155.788 89.2786 156.353 87.9759C156.586 87.2024 156.732 86.486 156.577 85.7826C156.422 85.0793 156.009 84.5469 155.652 84.1008C154.924 83.2804 153.779 82.6732 152.978 82.211L152.906 82.1963C151.962 81.7048 151.361 81.3581 150.99 80.9837C150.804 80.7965 150.747 80.7102 150.762 80.6385C150.762 80.6385 150.705 80.5522 150.835 80.2803C150.864 80.137 151.051 79.9514 151.525 79.8243C151.999 79.6972 152.73 79.772 153.647 80.0339C153.919 80.1641 154.878 80.584 155.078 80.6996C155.822 81.0756 156.713 80.7351 157.074 80.0626C157.45 79.3184 157.11 78.4278 156.437 78.0665C156.094 77.9217 155.407 77.632 154.991 77.4725L155.094 76.971Z" fill="#FF7360"/>
</svg>
