<svg width="204" height="141" viewBox="0 0 204 141" fill="none" xmlns="http://www.w3.org/2000/svg">
<path opacity="0.1" d="M79.5925 0.717773L0.80658 124.679H158.379L79.5925 0.717773Z" fill="#18E597"/>
<path opacity="0.1" d="M22.8963 140.045L78.4891 89.5477L0 68.5166L22.8963 140.045Z" fill="#18E597"/>
<circle opacity="0.1" r="49" transform="matrix(-1 0 0 1 155 67)" fill="#18E597"/>
<circle opacity="0.1" r="26.6178" transform="matrix(-1 0 0 1 41.3266 27.6549)" fill="#18E597"/>
<path d="M63.4786 81.3517L53.8383 56.1313C52.968 53.8545 50.3051 52.6644 48.0282 53.5347L21.4067 63.7105C16.6779 65.518 14.4393 70.6894 16.2134 75.3307L26.9248 103.353C28.7323 108.082 33.8161 110.354 38.545 108.547L66.5676 97.8353C68.0563 97.2662 68.9012 95.5381 68.3322 94.0494C67.964 93.0862 67.0162 92.4448 66.0273 92.2206L63.3159 85.1274C63.7693 83.9504 63.9807 82.6652 63.4786 81.3517ZM61.623 93.3019L36.4027 102.942C34.8264 103.545 33.1318 102.787 32.5293 101.211C31.9602 99.7223 32.6841 97.9401 34.2604 97.3376L59.4807 87.6974L61.623 93.3019Z" fill="#282F36"/>
<path d="M64.4786 78.3517L54.8383 53.1313C53.968 50.8545 51.3051 49.6644 49.0282 50.5347L22.4067 60.7105C17.6779 62.518 15.4393 67.6894 17.2134 72.3307L27.9248 100.353C29.7323 105.082 34.8161 107.354 39.545 105.547L67.5676 94.8353C69.0563 94.2662 69.9012 92.5381 69.3322 91.0494C68.964 90.0862 68.0162 89.4448 67.0273 89.2206L64.3159 82.1274C64.7693 80.9504 64.9807 79.6652 64.4786 78.3517ZM62.623 90.3019L37.4027 99.9421C35.8264 100.545 34.1318 99.7873 33.5293 98.211C32.9602 96.7223 33.6841 94.9401 35.2604 94.3376L60.4807 84.6974L62.623 90.3019Z" fill="#18E597"/>
<path d="M114.655 93.5299L110.452 95.1366C109.226 95.6052 108.718 96.9032 109.154 98.0416L112.635 107.149C111.058 107.751 110.335 109.534 110.904 111.022C111.506 112.599 113.201 113.356 114.689 112.787L118.258 121.861C118.727 123.087 119.937 123.628 121.163 123.159L125.367 121.552C126.505 121.117 127.134 119.873 126.665 118.647L117.56 94.8282C117.125 93.6898 115.794 93.0947 114.655 93.5299ZM143.338 76.1428L139.134 77.7495C137.908 78.2181 137.401 79.5162 137.836 80.6546L143.46 95.3664L132.251 99.651L126.627 84.9391C126.192 83.8007 124.86 83.2056 123.722 83.6408L119.519 85.2475C118.293 85.7161 117.785 87.0141 118.22 88.1525L131.61 123.181C132.078 124.407 133.289 124.948 134.515 124.479L138.718 122.872C139.856 122.437 140.485 121.193 140.016 119.967L134.393 105.256L145.602 100.971L151.225 115.683C151.694 116.909 152.904 117.45 154.13 116.981L158.334 115.374C159.472 114.939 160.101 113.695 159.632 112.469L146.243 77.4412C145.808 76.3027 144.476 75.7077 143.338 76.1428ZM163.075 87.8685L159.594 78.7611C159.159 77.6227 157.828 77.0276 156.689 77.4628L152.486 79.0695C151.26 79.5381 150.752 80.8361 151.187 81.9745L160.292 105.794C160.761 107.02 161.971 107.561 163.197 107.092L167.401 105.485C168.539 105.05 169.168 103.806 168.699 102.58L165.218 93.473C166.706 92.904 167.551 91.1759 166.949 89.5996C166.38 88.1109 164.564 87.2994 163.075 87.8685Z" fill="#282F36"/>
<path d="M116.655 91.5299L112.452 93.1366C111.226 93.6052 110.718 94.9032 111.154 96.0416L114.635 105.149C113.058 105.751 112.335 107.534 112.904 109.022C113.506 110.599 115.201 111.356 116.689 110.787L120.258 119.861C120.727 121.087 121.937 121.628 123.163 121.159L127.367 119.552C128.505 119.117 129.134 117.873 128.665 116.647L119.56 92.8282C119.125 91.6898 117.794 91.0947 116.655 91.5299ZM145.338 74.1428L141.134 75.7495C139.908 76.2181 139.401 77.5162 139.836 78.6546L145.46 93.3664L134.251 97.651L128.627 82.9391C128.192 81.8007 126.86 81.2056 125.722 81.6408L121.519 83.2475C120.293 83.7161 119.785 85.0141 120.22 86.1525L133.61 121.181C134.078 122.407 135.289 122.948 136.515 122.479L140.718 120.872C141.856 120.437 142.485 119.193 142.016 117.967L136.393 103.256L147.602 98.971L153.225 113.683C153.694 114.909 154.904 115.45 156.13 114.981L160.334 113.374C161.472 112.939 162.101 111.695 161.632 110.469L148.243 75.4412C147.808 74.3027 146.476 73.7077 145.338 74.1428ZM165.075 85.8685L161.594 76.7611C161.159 75.6227 159.828 75.0276 158.689 75.4628L154.486 77.0695C153.26 77.5381 152.752 78.8361 153.187 79.9745L162.292 103.794C162.761 105.02 163.971 105.561 165.197 105.092L169.401 103.485C170.539 103.05 171.168 101.806 170.699 100.58L167.218 91.473C168.706 90.904 169.551 89.1759 168.949 87.5996C168.38 86.1109 166.564 85.2994 165.075 85.8685Z" fill="#18E597"/>
<path d="M123.75 13.0392C122.484 11.3814 120.337 10.6197 118.309 11.1095C115.894 11.7842 116.032 12.0751 110.381 21.1927C109.785 22.1904 109.665 23.4374 110.174 24.5042L111.744 27.8015L106.26 43.2648C105.027 42.4244 104.186 41.1591 104.167 39.6212L104.107 35.2475C104.125 34.2869 103.469 33.4095 102.462 33.2942C101.552 33.1326 100.485 33.6408 100.227 34.5969L98.2972 40.0377C97.794 41.2293 97.6279 42.3793 97.7944 43.7279C98.0395 45.9909 97.4209 48.1893 95.9479 49.843L90.1436 56.8915C85.6783 61.7554 87.6423 69.6249 93.8959 71.7623L104.348 75.4694C110.648 77.7038 117.034 72.8765 116.632 66.2861L116.566 57.1555C116.607 54.9941 117.466 52.8002 118.985 51.2435C119.867 50.3474 120.559 49.3036 120.919 48.0612L122.083 45.0082C122.341 44.0522 121.976 43.0362 121.122 42.4913C120.314 42.0434 119.159 42.1175 118.522 42.778L116.615 44.5195C115.539 45.508 114.089 45.9608 112.703 45.55L121.488 20.78C121.585 20.7338 121.728 20.7846 121.728 20.7846C123.183 20.0916 124.167 18.9092 124.531 17.4266C124.993 15.8978 124.591 14.3045 123.75 13.0392ZM108.147 62.7127L107.588 64.2877C107.436 64.7172 106.951 64.9482 106.425 64.8421L98.9794 62.2014C98.6931 62.0998 98.5037 61.9521 98.4113 61.7581C98.3189 61.5642 98.3235 61.324 98.425 61.0377L98.9836 59.4627C99.0852 59.1763 99.2792 59.0839 99.4731 58.9915C99.6671 58.8991 99.861 58.8067 100.05 58.9545L107.639 61.6459C107.879 61.6505 107.971 61.8445 108.064 62.0384C108.156 62.2324 108.249 62.4263 108.147 62.7127ZM111.397 53.5493L110.839 55.1242C110.686 55.5538 110.201 55.7848 109.675 55.6786L102.183 52.941C101.943 52.9364 101.851 52.7424 101.758 52.5485C101.666 52.3545 101.573 52.1606 101.675 51.8742L102.234 50.2992C102.335 50.0129 102.483 49.8235 102.677 49.7311C102.871 49.6387 103.111 49.6433 103.397 49.7449L110.843 52.3855C111.129 52.4871 111.318 52.6348 111.411 52.8288C111.503 53.0227 111.499 53.2629 111.397 53.5493Z" fill="#282F36"/>
<path d="M125.664 11.883C124.399 10.2251 122.251 9.46341 120.224 9.95326C117.808 10.6279 117.947 10.9189 112.295 20.0365C111.7 21.0341 111.58 22.2811 112.088 23.3479L113.659 26.6452L108.174 42.1085C106.941 41.2682 106.1 40.0028 106.082 38.4649L106.021 34.0913C106.039 33.1306 105.383 32.2532 104.376 32.1379C103.467 31.9764 102.4 32.4846 102.141 33.4406L100.212 38.8814C99.7083 40.0731 99.5422 41.2231 99.7087 42.5716C99.9538 44.8346 99.3353 47.0331 97.8622 48.6867L92.0579 55.7353C87.5926 60.5991 89.5566 68.4687 95.8103 70.6061L106.262 74.3131C112.562 76.5475 118.949 71.7203 118.546 65.1299L118.48 55.9992C118.521 53.8378 119.38 51.6439 120.899 50.0873C121.781 49.1912 122.474 48.1473 122.834 46.9049L123.997 43.852C124.256 42.8959 123.891 41.8799 123.036 41.3351C122.228 40.8872 121.073 40.9613 120.436 41.6218L118.529 43.3632C117.453 44.3517 116.003 44.8045 114.617 44.3937L123.402 19.6238C123.499 19.5776 123.643 19.6284 123.643 19.6284C125.097 18.9354 126.081 17.7529 126.445 16.2704C126.907 14.7416 126.505 13.1483 125.664 11.883ZM110.061 61.5565L109.503 63.1314C109.35 63.561 108.866 63.7919 108.339 63.6858L100.894 61.0452C100.607 60.9436 100.418 60.7958 100.326 60.6019C100.233 60.4079 100.238 60.1678 100.339 59.8814L100.898 58.3064C101 58.0201 101.193 57.9277 101.387 57.8353C101.581 57.7429 101.775 57.6505 101.965 57.7982L109.553 60.4897C109.793 60.4943 109.886 60.6882 109.978 60.8822C110.071 61.0761 110.163 61.2701 110.061 61.5565ZM113.311 52.393L112.753 53.968C112.6 54.3975 112.116 54.6285 111.589 54.5224L104.098 51.7847C103.857 51.7802 103.765 51.5862 103.673 51.3922C103.58 51.1983 103.488 51.0043 103.589 50.718L104.148 49.143C104.25 48.8566 104.397 48.6673 104.591 48.5749C104.785 48.4825 105.025 48.487 105.312 48.5886L112.757 51.2293C113.043 51.3308 113.233 51.4786 113.325 51.6725C113.418 51.8665 113.413 52.1067 113.311 52.393Z" fill="#18E597"/>
</svg>
