<?xml version="1.0" standalone="no"?>
<!DOCTYPE svg PUBLIC "-//W3C//DTD SVG 20010904//EN"
 "http://www.w3.org/TR/2001/REC-SVG-20010904/DTD/svg10.dtd">
<svg version="1.0" xmlns="http://www.w3.org/2000/svg"
 width="576.000000pt" height="576.000000pt" viewBox="0 0 576.000000 576.000000"
 preserveAspectRatio="xMidYMid meet">
<metadata>
Created by potrace 1.14, written by Peter Selinger 2001-2017
</metadata>
<g transform="translate(0.000000,576.000000) scale(0.100000,-0.100000)"
fill="#000000" stroke="none">
<path d="M2678 5756 c-1 -2 -37 -6 -78 -10 -41 -3 -86 -8 -100 -10 -14 -3 -43
-7 -65 -10 -55 -8 -247 -47 -265 -53 -8 -3 -19 -7 -25 -8 -108 -26 -295 -91
-428 -150 -331 -148 -617 -345 -872 -600 -106 -106 -315 -352 -315 -370 0 -4
-13 -24 -29 -44 -77 -99 -211 -346 -284 -526 -66 -161 -148 -429 -162 -533 -3
-15 -7 -38 -10 -52 -27 -129 -39 -275 -39 -495 0 -251 4 -314 34 -498 14 -88
45 -219 73 -312 11 -38 22 -74 23 -80 7 -29 65 -187 85 -235 215 -501 552
-923 989 -1236 351 -252 813 -440 1225 -500 22 -3 51 -7 65 -10 69 -12 214
-19 390 -19 203 0 262 4 443 30 63 9 225 43 287 61 70 19 72 20 90 27 8 3 53
18 100 32 110 35 249 94 375 158 611 311 1103 845 1358 1472 41 99 112 308
121 353 1 9 6 24 9 32 12 33 53 256 63 340 3 30 9 84 14 120 8 68 5 507 -4
550 -3 14 -7 47 -10 74 -15 131 -81 430 -105 475 -5 9 -9 18 -8 21 1 12 -49
152 -85 240 -231 552 -629 1017 -1143 1339 -122 77 -365 197 -500 246 -211 79
-452 139 -645 161 -30 3 -64 8 -75 11 -22 5 -491 13 -497 9z"/>
</g>
</svg>
